TexturaLibera-Light.sfdir
StartChar: comma
Encoding: 44 44 12
Width: 300
Flags: W
HStem: -102 159
VStem: 88 99
LayerCount: 2
Back
SplineSet
130 30 m 25
 160 0 l 1
 160 -30 l 25
 115 -75 l 1049
EndSplineSet
Fore
SplineSet
103 14 m 1
 146 57 l 1
 187 16 l 1
 187 -14 l 1
 99 -102 l 1
 88 -91 l 1
 133 -46 l 1
 133 -16 l 1
 103 14 l 1
EndSplineSet
EndChar
StartChar: zero
Encoding: 48 48 16
Width: 400
Flags: W
HStem: 407 20G<196 256> 407 20G<196 256>
VStem: 73 54<71 284> 273 54<116 329>
LayerCount: 2
Back
SplineSet
200 400 m 1
 100 300 l 1
 100 50 l 25
 200 0 l 1
 300 100 l 1
 300 350 l 25
 200 400 l 1
EndSplineSet
Fore
SplineSet
184 373 m 1x30
 127 316 l 1
 127 71 l 1
 216 27 l 2
 216 27 267 78 273 84 c 1
 273 329 l 1
 184 373 l 1x30
73 284 m 1
 216 427 l 1xb0
 316 377 l 1
 327 366 l 1
 327 116 l 1
 184 -27 l 1
 84 23 l 1
 73 34 l 1
 73 284 l 1
EndSplineSet
Substitution2: "Subscript forms-1" zero.inferior
Substitution2: "Superscript forms-1" zero.superior
EndChar
StartChar: two
Encoding: 50 50 18
Width: 400
Flags: W
HStem: 23 54<166.329 281.389> 373 54<166 184>
VStem: 73 54<35 59> 273 54<291 329>
LayerCount: 2
Back
SplineSet
100 350 m 1
 150 400 l 1
 200 400 l 1
 300 350 l 1
 300 275 l 1
 100 75 l 25
 100 0 l 1
 100 0 163 50 250 50 c 3
 285 50 325 0 326 0 c 1025
EndSplineSet
Fore
SplineSet
84 323 m 1
 73 334 l 1
 166 427 l 1
 216 427 l 1
 316 377 l 1
 327 366 l 1
 327 291 l 1
 127 91 l 1
 127 35 l 1
 149 49 201 77 266 77 c 0
 289 77 314 55 329 40 c 2
 340 29 l 2
 345 24 349 19 351 17 c 2
 353 16 l 1
 310 -27 l 2
 310 -26 l 2
 299 -15 l 2
 298 -14 295 -12 292 -8 c 0
 278 6 254 23 234 23 c 0
 147 23 84 -27 84 -27 c 1
 73 -16 l 1
 73 59 l 1
 273 259 l 1
 273 329 l 1
 184 373 l 1
 134 373 l 1
 84 323 l 1
EndSplineSet
Substitution2: "Subscript forms-1" two.inferior
Substitution2: "Superscript forms-1" two.superior
EndChar
StartChar: four
Encoding: 52 52 20
Width: 400
Flags: W
HStem: -177 21G<259 294> -27 54<304.557 384> -9 57<302 383.935> -2 54<127.654 248> 348 54<209.055 258.5> 407 20G<196 223 272 302> 407 20G<196 223 272 302>
VStem: 73 54<36 184> 248 54<-119 -9 51 360>
LayerCount: 2
Back
SplineSet
260 -120 m 25
 290 -150 l 1049
275 -135 m 1
 275 400 l 1
 275 400 257 375 240 375 c 27
 222 375 200 400 200 400 c 1
 100 200 l 1
 100 0 l 1
 100 0 114 25 200 25 c 3
 336 25 399 0 400 0 c 1025
EndSplineSet
Fore
SplineSet
127 36 m 1x9980
 140 43 166 52 216 52 c 0
 227 52 238 51 248 51 c 1
 248 360 l 1
 241 354 232 348 224 348 c 0
 215 348 207 354 199 360 c 1
 127 216 l 1
 127 36 l 1x9980
302 48 m 2xad80
 304 48 306 48 308 48 c 0xad80
 381 41 415 27 416 27 c 2
 427 16 l 1
 384 -27 l 2xc980
 383 -27 357 -16 302 -9 c 1xa980
 302 -119 l 1
 317 -134 l 1
 274 -177 l 1
 259 -162 l 1
 248 -151 l 1
 233 -136 l 1
 248 -121 l 1
 248 -4 l 2
 247 -4 246 -4 245 -4 c 0
 227 -3 206 -2 184 -2 c 0x9980
 125 -2 100 -13 90 -21 c 2
 84 -27 l 1xc980
 73 -16 l 1
 73 184 l 1
 173 384 l 1
 216 427 l 1
 223 419 l 2
 231 412 245 402 256 402 c 0
 261 402 266 404 272 408 c 2
 291 427 l 1
 302 416 l 1
 302 48 l 2xad80
EndSplineSet
Substitution2: "Subscript forms-1" four.inferior
Substitution2: "Superscript forms-1" four.superior
EndChar
StartChar: seven
Encoding: 55 55 23
Width: 400
Flags: W
HStem: 123 54<122.965 185.717> 123 29<277.718 310> 323 54<141.23 301.281> 407 20G<71 151 316 377> 407 20G<71 151 316 377>
VStem: 173 54<-110 96.7805>
LayerCount: 2
Back
SplineSet
185 -110 m 25
 215 -140 l 1049
75 400 m 1
 75 400 137 350 225 350 c 3
 279 350 350 400 350 400 c 1
 350 400 200 276 200 0 c 3
 200 -32 200 -125 200.599609376 -125 c 1025
100 125 m 25
 100 125 147 150 175 150 c 24
 219 150 206 125 250 125 c 24
 278 125 325 150 326 150 c 1049
EndSplineSet
Fore
SplineSet
73 109 m 1xa4
 116 152 l 1x64
 116 152 163 177 191 177 c 0xa4
 195 177 197 176 200 176 c 0
 224 256 260 311 287 345 c 1
 263 333 234 323 209 323 c 0
 121 323 59 373 59 373 c 1
 48 384 l 1
 91 427 l 1
 91 427 153 377 241 377 c 0
 295 377 366 427 366 427 c 1
 377 416 l 1
 355 394 l 2
 324 359 267 282 241 156 c 1
 247 154 255 152 266 152 c 0x74
 294 152 341 177 342 177 c 2xa4
 353 166 l 1
 310 123 l 2x64
 309 123 262 98 234 98 c 0
 233 98 233 98 232 98 c 0
 229 72 227 45 227 16 c 0
 227 -16 227 -108 227 -109 c 2
 227 -110 l 1
 242 -124 l 1
 199 -167 l 1
 158 -126 l 1
 173 -110 l 1
 173 -80 173 -36 173 -16 c 0
 173 33 178 78 186 118 c 1
 180 121 172 123 159 123 c 0
 131 123 84 98 84 98 c 1
 73 109 l 1xa4
185 -152 m 1
 185 -152 l 1
EndSplineSet
Substitution2: "Subscript forms-1" seven.inferior
Substitution2: "Superscript forms-1" seven.superior
EndChar
StartChar: I
Encoding: 73 73 41
Width: 450
Flags: W
HStem: -27 21G<23 54 248 279> 23 54<95.0542 190.937> 523 21G<23 54> 548 54<161.837 192> 573 25<83 97.9505 220.009 235> 607 20G<266.5 278 371 402>
VStem: 192 16<76 549> 298 54<66 534>
AnchorPoint: "blwmark" 250 0 basechar 0
AnchorPoint: "abvmark" 250 700 basechar 0
LayerCount: 2
Back
SplineSet
50 550 m 1
 50 550 84 600 124 600 c 3
 160 600 178 575 200 575 c 3
 228 575 250 600 251 600 c 1025
200 550 m 1
 200 75 l 1025
375 600 m 1
 325 550 l 1
 325 50 l 1
 275 0 l 17
 275 0 248 50 150 50 c 3
 81 50 50 0 50 0 c 1033
EndSplineSet
Fore
SplineSet
391 627 m 1xef
 402 616 l 1
 352 566 l 1
 352 66 l 1
 259 -27 l 1
 248 -16 l 1
 248 -16 247 -13 244 -9 c 0
 227 6 193 23 134 23 c 0
 101 23 78 12 62 1 c 2
 34 -27 l 1
 23 -16 l 2
 23 -16 27 -9 35 -1 c 2
 78 41 l 2
 93 56 122 77 166 77 c 0
 175 77 184 77 192 76 c 1
 192 549 l 2
 190 549 187 548 184 548 c 0xf7
 162 548 144 573 108 573 c 0
 95 573 83 568 71 560 c 2
 34 523 l 1
 23 534 l 1
 23 534 30 544 41 555 c 2
 83 598 l 2
 84 598 l 0xef
 98 612 118 627 140 627 c 0
 176 627 194 602 216 602 c 0xf7
 244 602 266 627 267 627 c 2
 278 616 l 1
 235 573 l 2
 234 573 224 561 208 554 c 1
 208 73 l 1
 247 66 270 50 281 39 c 0
 292 28 l 1
 298 34 l 1
 298 534 l 1
 391 627 l 1xef
EndSplineSet
EndChar
StartChar: J
Encoding: 74 74 42
Width: 450
Flags: W
HStem: -177 54<20.0542 154.589> 523 21G<23 54> 548 54<161.837 192> 573 25<83 97.9505 220.009 235> 607 20G<266.5 278 371 402>
VStem: 192 16<-150 549> 298 54<-59 534>
AnchorPoint: "abvmark" 250 700 basechar 0
LayerCount: 2
Back
SplineSet
50 550 m 1
 50 550 84 600 124 600 c 3
 160 600 178 575 200 575 c 3
 228 575 250 600 251 600 c 1025
200 550 m 1
 200 -125 l 1025
375 600 m 1
 325 550 l 1
 325 -75 l 1
 200 -200 l 1
 200 -200 173 -150 75 -150 c 3
 6 -150 -25 -200 -25 -200 c 1025
EndSplineSet
Fore
SplineSet
391 627 m 1xde
 402 616 l 1
 352 566 l 1
 352 -59 l 1
 184 -227 l 1
 173 -216 l 1
 173 -216 172 -213 169 -209 c 0
 152 -194 118 -177 59 -177 c 0
 26 -177 3 -188 -13 -199 c 2
 -41 -227 l 1
 -52 -216 l 2
 -52 -216 -48 -209 -40 -201 c 2
 3 -159 l 2
 18 -144 47 -123 91 -123 c 0
 142 -123 173 -137 192 -150 c 1
 192 549 l 2
 190 549 187 548 184 548 c 0xee
 162 548 144 573 108 573 c 0
 95 573 83 568 71 560 c 2
 34 523 l 1
 23 534 l 1
 23 534 30 544 41 555 c 2
 83 598 l 2
 84 598 l 0xde
 98 612 118 627 140 627 c 0
 176 627 194 602 216 602 c 0xee
 244 602 266 627 267 627 c 2
 278 616 l 1
 235 573 l 2
 234 573 224 561 208 554 c 1
 208 -155 l 1
 199 -155 l 2
 202 -157 204 -159 206 -161 c 2
 217 -172 l 1
 298 -91 l 1
 298 534 l 1
 391 627 l 1xde
EndSplineSet
EndChar
StartChar: L
Encoding: 76 76 44
Width: 700
Flags: W
HStem: -27 21G<23 54 344 504> 23 54<95.0872 192 208 352.497> 523 21G<23 54> 548 54<161.837 192> 573 25<83 97.9505 220.009 235> 607 20G<266.5 278 371 402>
VStem: 192 16<77 549> 298 54<166 534> 523 54<163.392 256.391>
AnchorPoint: "blwmark" 350 0 basechar 0
AnchorPoint: "abvmark" 400 700 basechar 0
LayerCount: 2
Back
SplineSet
50 550 m 1
 50 550 84 600 124 600 c 3
 160 600 178 575 200 575 c 3
 228 575 250 600 251 600 c 1025
200 550 m 1
 200 75 l 1025
325 150 m 1
 325 550 l 1
 375 600 l 1025
600 300 m 1
 600 300 550 261 550 225 c 3
 550 164 600 101 600 101 c 1
 500 0 l 17
 500 0 349 50 150 50 c 3
 81 50 50 0 50 0 c 1033
EndSplineSet
Fore
SplineSet
627 316 m 1xef80
 597 285 l 2
 586 272 577 257 577 241 c 0
 577 180 627 117 627 117 c 1
 527 16 l 1
 484 -27 l 1
 484 -27 333 23 134 23 c 0
 101 23 78 12 62 1 c 2
 34 -27 l 1
 23 -16 l 2
 23 -16 27 -9 35 -1 c 2
 78 41 l 2
 93 56 122 77 166 77 c 0
 175 77 183 77 192 77 c 1
 192 549 l 2
 190 549 187 548 184 548 c 0xf780
 162 548 144 573 108 573 c 0
 95 573 83 568 71 560 c 2
 34 523 l 1
 23 534 l 1
 23 534 30 544 41 555 c 2
 83 598 l 2
 84 598 l 0xef80
 98 612 118 627 140 627 c 0
 176 627 194 602 216 602 c 0xf780
 244 602 266 627 267 627 c 2
 278 616 l 1
 235 573 l 2
 234 573 224 561 208 554 c 1
 208 76 l 1
 381 70 508 29 515 27 c 1
 573 85 l 1
 573 85 523 148 523 209 c 0
 523 231 541 254 556 269 c 0
 557 270 l 2
 600 312 l 2
 609 321 616 327 616 327 c 1
 627 316 l 1xef80
309 123 m 1
 298 134 l 1
 298 534 l 1
 391 627 l 1
 402 616 l 1
 352 566 l 1
 352 166 l 1
 309 123 l 1
EndSplineSet
EndChar
StartChar: V
Encoding: 86 86 54
Width: 700
Flags: W
HStem: -27 21G<348 379> 123 54<143.612 192 208 270.346> 523 21G<23 54> 548 54<161.837 192> 573 25<83 97.9505 220.009 235> 607 20G<266.5 278 371 402 592.444 627>
VStem: 192 16<177 549> 298 54<266 534> 473 54<455.769 510.21> 548 54<217 395.555>
AnchorPoint: "blwmark" 375 0 basechar 0
AnchorPoint: "abvmark" 450 700 basechar 0
LayerCount: 2
Back
SplineSet
50 550 m 1
 50 550 84 600 124 600 c 3
 160 600 178 575 200 575 c 3
 228 575 250 600 251 600 c 1025
200 550 m 1
 200 175 l 1025
325 250 m 1
 325 550 l 1
 375 600 l 1025
100 100 m 17
 100 100 138 150 175 150 c 3
 374 150 375 0 375 0 c 1
 575 201 l 1
 575 415 l 1
 575 415 500 419 500 475 c 3
 500 530 600 600 600 600 c 1025
EndSplineSet
Fore
SplineSet
84 73 m 1xefc0
 73 84 l 1
 73 84 79 93 89 102 c 2
 131 144 l 2
 145 158 169 177 191 177 c 0
 192 177 l 2
 192 549 l 2
 190 549 187 548 184 548 c 0xf7c0
 162 548 144 573 108 573 c 0
 95 573 83 568 71 560 c 2
 34 523 l 1
 23 534 l 1
 23 534 30 544 41 555 c 2
 83 598 l 2
 84 598 l 0xefc0
 98 612 118 627 140 627 c 0
 176 627 194 602 216 602 c 0xf7c0
 244 602 266 627 267 627 c 2
 278 616 l 1
 235 573 l 2
 234 573 224 561 208 554 c 1
 208 176 l 1
 277 173 320 151 347 124 c 2
 358 113 l 2
 384 87 395 56 399 36 c 1
 548 185 l 1
 548 390 l 1
 535 392 513 398 499 412 c 2
 488 423 l 2
 479 432 473 443 473 459 c 0
 473 485 496 515 520 539 c 2
 562 582 l 2
 563 582 l 2
 589 608 616 627 616 627 c 2
 627 616 l 1
 584 573 l 2
 584 573 572 565 555 550 c 0
 540 532 527 510 527 491 c 0
 527 479 530 468 536 460 c 0
 558 443 591 442 591 442 c 1
 602 431 l 1
 602 217 l 1
 402 16 l 1
 359 -27 l 1
 348 -16 l 1
 348 -16 348 -14 348 -10 c 0
 347 4 340 43 310 76 c 1
 281 102 234 123 159 123 c 0
 144 123 129 115 116 105 c 2
 84 73 l 1xefc0
309 223 m 1
 298 234 l 1
 298 534 l 1
 391 627 l 1
 402 616 l 1
 352 566 l 1
 352 266 l 1
 309 223 l 1
EndSplineSet
EndChar
StartChar: Z
Encoding: 90 90 58
Width: 700
Flags: W
HStem: 23 54<105.19 411.717> 273 54<350.43 494.303> 298 54<205.697 304.284> 523 54<240.193 523.107> 607 20G<96 256 556 627>
AnchorPoint: "blwmark" 300 0 basechar 0
AnchorPoint: "abvmark" 350 700 basechar 0
LayerCount: 2
Back
SplineSet
150 275 m 25
 150 275 206 325 250 325 c 27
 329 325 371 300 450 300 c 27
 494 300 550 350 550 350 c 1049
625 100 m 1
 525 0 l 1
 525 0 448 50 200 50 c 3
 127 50 50 0 50 0 c 1
 600 600 l 1
 600 600 514 550 450 550 c 3
 240 550 100 600 100 600 c 1025
EndSplineSet
Fore
SplineSet
641 127 m 1xd8
 652 116 l 1
 509 -27 l 1
 509 -27 432 23 184 23 c 0
 111 23 34 -27 34 -27 c 1
 23 -16 l 1
 305 292 l 1
 284 296 261 298 234 298 c 0
 190 298 134 248 134 248 c 1
 123 259 l 1
 166 302 l 1
 166 302 222 352 266 352 c 0xb8
 299 352 325 347 351 342 c 1
 544 553 l 1
 512 539 470 523 434 523 c 0
 224 523 84 573 84 573 c 1
 73 584 l 1
 116 627 l 1
 116 627 256 577 466 577 c 0
 530 577 616 627 616 627 c 1
 627 616 l 1
 372 338 l 1
 400 332 429 327 466 327 c 0
 510 327 566 377 566 377 c 1
 577 366 l 1
 534 323 l 1
 534 323 478 273 434 273 c 0
 391 273 359 280 326 287 c 1
 108 50 l 1
 136 63 177 77 216 77 c 0
 464 77 541 27 541 27 c 1
 641 127 l 1xd8
EndSplineSet
EndChar
StartChar: bracketright
Encoding: 93 93 61
Width: 300
Flags: W
HStem: -177 54<66 173> 673 54<66 173>
VStem: 173 54<-123 673>
LayerCount: 2
Back
SplineSet
50 700 m 25
 200 700 l 25
 200 -150 l 25
 50 -150 l 1033
EndSplineSet
Fore
SplineSet
23 684 m 1
 66 727 l 1
 216 727 l 1
 227 716 l 1
 227 -134 l 1
 184 -177 l 1
 34 -177 l 1
 23 -166 l 1
 66 -123 l 1
 173 -123 l 1
 173 673 l 1
 34 673 l 1
 23 684 l 1
EndSplineSet
EndChar
StartChar: grave
Encoding: 96 96 64
Width: 400
Flags: W
HStem: 523 204
VStem: 98 54<652.611 684>
LayerCount: 2
Back
SplineSet
125 700 m 17
 125 600 275 550 275 550 c 1049
EndSplineSet
Fore
SplineSet
141 727 m 1
 152 716 l 1
 152 686 166 659 185 638 c 0
 229 597 291 577 291 577 c 1
 302 566 l 1
 259 523 l 1
 259 523 192 546 148 590 c 2
 137 601 l 2
 115 623 98 651 98 684 c 1
 141 727 l 1
EndSplineSet
EndChar
StartChar: c
Encoding: 99 99 67
Width: 350
Flags: W
HStem: 407 20G<196 236> 407 20G<196 236>
VStem: 73 54<84 284>
AnchorPoint: "blwmark" 200 0 basechar 0
AnchorPoint: "abvmark" 200 500 basechar 0
LayerCount: 2
Back
SplineSet
300 300 m 9
 200 400 l 25
 100 300 l 25
 100 100 l 25
 200 0 l 25
 300 100 l 1041
EndSplineSet
Fore
SplineSet
327 316 m 1xa0
 284 273 l 1
 184 373 l 1
 127 316 l 1
 127 116 l 2
 127 66 190 53 216 27 c 1
 316 127 l 1
 327 116 l 1
 184 -27 l 1
 73 84 l 1
 73 284 l 1
 216 427 l 1
 327 316 l 1xa0
EndSplineSet
EndChar
StartChar: d
Encoding: 100 100 68
Width: 400
Flags: W
HStem: 407 20G<196 235.655> 407 20G<196 235.655> 523 54<133.948 241.542>
VStem: 73 54<84 284 578 621.625> 273 54<116 284 369 491.668>
AnchorPoint: "blwmark" 200 0 basechar 0
AnchorPoint: "abvmark" 250 700 basechar 0
LayerCount: 2
Back
SplineSet
300 300 m 1
 200 400 l 25
 100 300 l 1
 100 100 l 25
 200 0 l 25
 300 100 l 1
 300 450 l 10
 300 505 244 550 200 550 c 0
 156 550 100 556 100 600 c 27
 100 628 140 650 141 650 c 1049
EndSplineSet
Fore
SplineSet
273 284 m 1x38
 184 373 l 1
 127 316 l 1
 127 116 l 2
 127 66 190 53 216 27 c 1
 273 84 l 1
 273 284 l 1x38
273 369 m 1
 273 434 l 2
 273 457 263 479 248 496 c 0
 229 513 205 523 184 523 c 0
 152 523 115 526 96 545 c 2
 84 556 l 2
 77 563 73 572 73 584 c 0
 73 596 80 607 89 616 c 2
 132 659 l 2
 143 670 156 677 157 677 c 2
 168 666 l 1
 129 627 l 2
 128 624 127 620 127 616 c 0
 127 607 129 599 133 593 c 0
 153 579 187 577 216 577 c 0
 239 577 265 565 285 545 c 0
 297 533 l 2
 315 515 327 492 327 466 c 2
 327 116 l 1
 184 -27 l 1
 73 84 l 1
 73 284 l 1
 216 427 l 1xb8
 273 369 l 1
EndSplineSet
EndChar
StartChar: l
Encoding: 108 108 76
Width: 200
Flags: W
HStem: 622 20G<81 116>
VStem: 73 54<31 584>
AnchorPoint: "blwmark" 100 0 basechar 0
AnchorPoint: "abvmark" 100 700 basechar 0
LayerCount: 2
Back
SplineSet
85 30 m 25
 115 0 l 25
 145 30 l 1049
85 615 m 25
 115 585 l 1049
100 600 m 9
 100 15 l 1049
EndSplineSet
Fore
SplineSet
58 599 m 1
 101 642 l 1
 116 627 l 1
 127 616 l 1
 142 601 l 1
 127 586 l 1
 127 31 l 1
 131 27 l 1
 161 57 l 1
 172 46 l 1
 99 -27 l 1
 84 -12 l 1
 73 -1 l 1
 58 14 l 1
 73 29 l 1
 73 584 l 1
 58 599 l 1
EndSplineSet
EndChar
StartChar: n
Encoding: 110 110 78
Width: 400
Flags: W
HStem: 407 20G<81 116 221 261> 407 20G<81 116 221 261>
VStem: 73 54<31 291 313 369> 273 54<31 341>
AnchorPoint: "blwmark" 200 0 basechar 0
AnchorPoint: "abvmark" 200 500 basechar 0
LayerCount: 2
Back
SplineSet
285 30 m 25
 315 0 l 1049
300 15 m 1
 300 325 l 25
 225 400 l 1
 100 275 l 1049
85 30 m 25
 115 0 l 1049
115 370 m 25
 85 400 l 1049
100 385 m 9
 100 15 l 1025
EndSplineSet
Fore
SplineSet
127 401 m 1xb0
 142 386 l 1
 127 371 l 1
 127 313 l 1
 241 427 l 1
 327 341 l 1
 327 31 l 1
 342 16 l 1
 299 -27 l 1
 284 -12 l 1
 273 -1 l 1
 258 14 l 1
 273 29 l 1
 273 309 l 2
 273 344 228 354 209 373 c 1
 127 291 l 1
 127 31 l 1
 142 16 l 1
 99 -27 l 1
 84 -12 l 1
 73 -1 l 1
 58 14 l 1
 73 29 l 1
 73 259 l 1
 73 369 l 1
 58 384 l 1
 101 427 l 1
 116 412 l 1
 127 401 l 1xb0
EndSplineSet
Substitution2: "Stylistic alternates-1" n.alt
EndChar
StartChar: t
Encoding: 116 116 84
Width: 325
Flags: W
HStem: 373 54<66 98 152 234> 557 20G<121 152>
VStem: 98 54<38.6367 373 427 534>
AnchorPoint: "blwmark" 175 0 basechar 0
AnchorPoint: "abvmark" 150 650 basechar 0
LayerCount: 2
Back
SplineSet
50 400 m 25
 250 400 l 1049
125 550 m 1
 125 50 l 1
 175 0 l 1
 275 100 l 1025
EndSplineSet
Fore
SplineSet
141 577 m 1
 152 566 l 1
 152 427 l 1
 266 427 l 1
 277 416 l 1
 234 373 l 1
 152 373 l 1
 152 66 l 2
 152 45 180 38 191 27 c 1
 291 127 l 1
 302 116 l 1
 159 -27 l 1
 98 34 l 1
 98 373 l 1
 34 373 l 1
 23 384 l 1
 66 427 l 1
 98 427 l 1
 98 534 l 1
 141 577 l 1
EndSplineSet
EndChar
StartChar: v
Encoding: 118 118 86
Width: 400
Flags: W
HStem: 407 20G<81 116> 427 130G<81 116 320.5 332>
VStem: 73 54<84 369> 223 54<424.721 508.345> 273 54<116 378>
AnchorPoint: "blwmark" 200 0 basechar 0
LayerCount: 2
Back
SplineSet
115 370 m 25
 85 400 l 1049
100 385 m 25
 100 100 l 1
 200 0 l 25
 300 100 l 1
 300 375 l 25
 320 337 250 423 250 472 c 8
 250 519 303 550 305 550 c 1033
EndSplineSet
Fore
SplineSet
127 401 m 1xa8
 142 386 l 1
 127 371 l 1
 127 116 l 2
 127 66 190 53 216 27 c 1
 273 84 l 1
 273 352 l 1xa8
 261 364 223 420 223 456 c 0
 223 480 236 500 250 514 c 2
 293 556 l 2
 306 569 320 577 321 577 c 2
 332 566 l 1
 289 523 l 2
 289 523 288 523 286 522 c 0
 281 512 277 501 277 488 c 0xb0
 277 461 298 423 314 400 c 1
 316 402 l 1
 327 391 l 2
 330 385 331 382 330 381 c 2
 327 378 l 1
 327 116 l 1
 184 -27 l 1
 73 84 l 1
 73 369 l 1
 58 384 l 1
 101 427 l 1
 116 412 l 1
 127 401 l 1xa8
EndSplineSet
Substitution2: "Dotless forms-1" v.alt
EndChar
StartChar: asciitilde
Encoding: 126 126 94
Width: 700
Flags: W
HStem: 273 54<291.042 544.303> 298 54<155.697 408.958>
LayerCount: 2
Back
SplineSet
100 275 m 17
 100 275 156 325 200 325 c 27
 317 325 383 300 500 300 c 27
 544 300 600 350 600 350 c 1033
EndSplineSet
Fore
SplineSet
73 259 m 1x40
 116 302 l 1
 116 302 172 352 216 352 c 0x40
 333 352 399 327 516 327 c 0
 560 327 616 377 616 377 c 1
 627 366 l 1
 584 323 l 1
 584 323 528 273 484 273 c 0x80
 367 273 301 298 184 298 c 0
 140 298 84 248 84 248 c 1
 73 259 l 1x40
EndSplineSet
EndChar
StartChar: registered
Encoding: 174 174 222
Width: 700
Flags: W
HStem: -20 40<252.325 474.976> 142 40<210.193 269.052> 445 40<212.672 269.953> 445 26<282.476 292> 580 40<225.024 447.675>
VStem: 30 40<200.298 425.333> 270 12<182 431> 325 40<174 426> 448 40<174 302> 630 40<174.468 399.702>
LayerCount: 2
Back
SplineSet
193 438 m 1
 193 438 212 465 234 465 c 3
 254 465 264 451 276 451 c 3
 291 451 303 465 304 465 c 1025
276 438 m 1
 276 176 l 1025
413 314 m 1
 496 396 l 1
 372 465 l 1
 345 438 l 1
 345 162 l 1
 317 135 l 1
 317 135 302 162 248 162 c 3
 210 162 193 135 193 135 c 1033
441 341 m 1
 468 314 l 1
 468 162 l 1
 496 135 l 9
 523 162 l 1049
50 350 m 0
 50 475 175 600 300 600 c 0
 550 600 650 500 650 250 c 0
 650 125 525 0 400 0 c 0
 150 0 50 100 50 350 c 0
EndSplineSet
Fore
SplineSet
30 338 m 0xcfc0
 30 400 61 463 108 510 c 2
 140 542 l 2
 187 589 250 620 312 620 c 0
 437 620 524 595 580 539 c 2
 589 530 l 2
 645 474 670 387 670 262 c 0
 670 199 639 137 592 90 c 2
 560 58 l 2
 513 11 450 -20 388 -20 c 0
 263 -20 176 5 120 61 c 2
 111 70 l 2
 55 126 30 213 30 338 c 0xcfc0
70 362 m 0
 70 240 93 154 147 97 c 1
 203 44 290 20 412 20 c 0
 467 20 522 45 567 83 c 1
 605 127 630 182 630 238 c 0
 630 360 607 446 553 503 c 1
 497 556 410 580 288 580 c 0
 233 580 178 555 133 517 c 1
 95 473 70 418 70 362 c 0
393 302 m 1
 425 334 l 1
 473 382 l 1
 365 442 l 1
 365 174 l 1
 333 142 l 1
 305 115 l 1
 297 123 l 1
 297 123 297 124 296 125 c 0
 286 133 267 142 236 142 c 0
 218 142 205 135 196 129 c 2
 181 115 l 1
 173 123 l 2
 173 123 175 126 179 130 c 2
 179 131 l 2
 211 163 l 2
 219 171 235 182 260 182 c 0
 264 182 267 182 270 182 c 2
 270 431 l 2
 268 431 266 431 264 431 c 0
 252 431 242 445 222 445 c 0
 214 445 207 442 200 437 c 2
 181 418 l 1
 173 426 l 1
 173 426 176 431 182 437 c 2
 214 468 l 2
 214 469 l 0
 222 477 234 485 246 485 c 0xefc0
 266 485 276 471 288 471 c 0xdfc0
 303 471 315 485 316 485 c 2xefc0
 324 477 l 1
 292 445 l 2xdfc0
 291 445 288 441 282 437 c 1
 282 180 l 1
 305 176 318 167 324 161 c 0
 325 160 l 1
 325 426 l 1
 384 485 l 1xefc0
 508 416 l 1
 516 408 l 1
 484 376 l 1
 461 353 l 1
 488 326 l 1
 488 174 l 1
 508 155 l 2
 508 155 532 179 535 182 c 1
 543 174 l 1
 484 115 l 1
 456 142 l 1
 448 150 l 1
 448 302 l 1
 429 321 l 1
 401 294 l 1
 393 302 l 1
EndSplineSet
EndChar
StartChar: degree
Encoding: 176 176 229
Width: 500
Flags: W
HStem: 398 54<203.115 322.071> 698 54<177.929 296.885>
VStem: 73 54<528.505 648.142> 373 54<501.858 621.495>
LayerCount: 2
Back
SplineSet
100 600 m 0
 100 660 165 725 225 725 c 0
 325 725 400 650 400 550 c 0
 400 490 335 425 275 425 c 0
 175 425 100 500 100 600 c 0
EndSplineSet
Fore
SplineSet
73 584 m 0
 73 614 89 646 113 670 c 2
 156 712 l 2
 180 736 211 752 241 752 c 0
 291 752 335 733 366 702 c 2
 377 690 l 2
 408 659 427 616 427 566 c 0
 427 536 411 504 387 480 c 2
 344 438 l 2
 320 414 289 398 259 398 c 0
 209 398 165 417 134 448 c 2
 123 460 l 2
 92 491 73 534 73 584 c 0
127 616 m 0
 127 569 143 527 171 496 c 0
 201 468 244 452 291 452 c 0
 312 452 332 460 352 473 c 1
 364 492 373 513 373 534 c 0
 373 581 357 623 329 654 c 0
 299 682 256 698 209 698 c 0
 188 698 168 690 148 677 c 1
 136 658 127 637 127 616 c 0
EndSplineSet
EndChar
StartChar: cedilla
Encoding: 184 184 102
Width: 400
Flags: W
HStem: -202 54<68.6014 179.96>
VStem: 23 304
LayerCount: 2
Back
SplineSet
200 0 m 25
 175 -25 l 1
 300 -75 l 1
 200 -200 l 1
 200 -200 174 -175 125 -175 c 3
 65 -175 50 -200 50 -200 c 1025
EndSplineSet
Fore
SplineSet
216 27 m 1
 227 16 l 1
 207 -5 l 1
 316 -48 l 1
 327 -59 l 1
 227 -184 l 1
 184 -227 l 1
 184 -227 158 -202 109 -202 c 0
 71 -202 51 -212 42 -219 c 2
 34 -227 l 1
 23 -216 l 1
 23 -216 24 -214 26 -212 c 2
 69 -169 l 2
 76 -162 96 -148 141 -148 c 0
 177 -148 200 -162 210 -169 c 1
 269 -96 l 1
 159 -52 l 1
 148 -41 l 1
 216 27 l 1
EndSplineSet
EndChar
StartChar: ordmasculine
Encoding: 186 186 211
Width: 400
Flags: W
HStem: 173 54<66 334>
VStem: 73 54<384 584> 273 54<416 616>
LayerCount: 2
Back
SplineSet
200 700 m 25
 100 600 l 25
 100 400 l 25
 200 300 l 25
 300 400 l 25
 300 600 l 25
 200 700 l 25
50 200 m 25
 350 200 l 1049
EndSplineSet
Fore
SplineSet
23 184 m 1
 66 227 l 1
 366 227 l 1
 377 216 l 1
 334 173 l 1
 34 173 l 1
 23 184 l 1
184 673 m 1
 127 616 l 1
 127 416 l 2
 127 366 190 353 216 327 c 1
 273 384 l 1
 273 584 l 2
 273 634 210 647 184 673 c 1
73 584 m 1
 216 727 l 1
 327 616 l 1
 327 416 l 1
 184 273 l 1
 73 384 l 1
 73 584 l 1
EndSplineSet
EndChar
StartChar: Eng
Encoding: 330 330 599
Width: 700
Flags: W
HStem: -177 54<104.447 395.676> -27 21G<23 54 248 279> 23 54<95.2575 190.937> 523 21G<23 54> 548 54<161.837 192> 573 25<83 97.9505 220.009 235> 607 20G<266.5 278 371 423>
VStem: 192 16<76 549> 298 54<66 534> 548 54<-84 455>
AnchorPoint: "abvmark" 400 700 basechar 0
LayerCount: 2
Back
SplineSet
50 550 m 1
 50 550 84 600 124 600 c 3
 160 600 178 575 200 575 c 3
 228 575 250 600 251 600 c 1025
200 550 m 1
 200 75 l 1025
50 0 m 17
 50 0 81 50 150 50 c 3
 248 50 275 0 275 0 c 1
 325 50 l 1
 325 550 l 1
 375 600 l 1
 575 475 l 1
 575 -100 l 1
 475 -200 l 1
 475 -200 412 -150 250 -150 c 3
 66 -150 50 -200 50 -200 c 1033
EndSplineSet
Fore
SplineSet
34 -27 m 1xf7c0
 23 -16 l 1
 23 -16 27 -9 35 -1 c 2
 78 41 l 2
 93 56 122 77 166 77 c 0
 175 77 184 77 192 76 c 1
 192 549 l 2
 190 549 187 548 184 548 c 0xfbc0
 162 548 144 573 108 573 c 0
 95 573 83 568 71 560 c 2
 34 523 l 1
 23 534 l 1
 23 534 30 544 41 555 c 2
 83 598 l 2
 84 598 l 0xf7c0
 98 612 118 627 140 627 c 0
 176 627 194 602 216 602 c 0xfbc0
 244 602 266 627 267 627 c 2
 278 616 l 1
 235 573 l 2
 234 573 224 561 208 554 c 1
 208 73 l 1
 247 66 270 50 281 39 c 2
 292 28 l 1
 298 34 l 1
 298 534 l 1
 391 627 l 1
 591 502 l 1
 602 491 l 1
 602 -84 l 1
 459 -227 l 1
 459 -227 396 -177 234 -177 c 0
 124 -177 74 -195 52 -209 c 1
 34 -227 l 1
 23 -216 l 2
 23 -216 24 -212 29 -207 c 2
 30 -207 l 2
 72 -164 l 2
 86 -150 132 -123 266 -123 c 0
 428 -123 491 -173 491 -173 c 1
 548 -116 l 1
 548 455 l 1
 359 573 l 1
 352 566 l 1
 352 66 l 1
 259 -27 l 1
 248 -16 l 1
 248 -16 247 -13 244 -9 c 0
 227 5 193 23 134 23 c 0
 102 23 78 13 62 1 c 2
 34 -27 l 1xf7c0
EndSplineSet
EndChar
StartChar: wynn
Encoding: 447 447 877
Width: 400
Flags: W
HStem: -177 21G<73 104> 407 20G<81 116 196 236> 407 20G<81 116 196 236>
VStem: 73 54<-134 -38 -16 16 38 316 338 369> 273 54<216 316>
AnchorPoint: "abvmark" 200 500 basechar 0
LayerCount: 2
Back
SplineSet
50 -50 m 9
 300 200 l 1
 300 300 l 25
 200 400 l 1
 100 300 l 1049
85 400 m 25
 115 370 l 1049
100 385 m 1
 100 -150 l 1025
EndSplineSet
Fore
SplineSet
58 384 m 1xd8
 101 427 l 1
 116 412 l 1
 127 401 l 1
 142 386 l 1
 127 371 l 1
 127 338 l 1
 216 427 l 1
 327 316 l 1
 327 216 l 1
 127 16 l 1
 127 -134 l 1
 84 -177 l 1
 73 -166 l 1
 73 -38 l 1
 34 -77 l 1
 23 -66 l 1
 73 -16 l 1
 73 284 l 1
 73 369 l 1
 58 384 l 1xd8
127 316 m 1
 127 38 l 1
 273 184 l 1
 273 284 l 2
 273 334 210 347 184 373 c 1
 127 316 l 1
EndSplineSet
EndChar
StartChar: HV
Encoding: 502 502 513
Width: 900
Flags: W
HStem: -27 21G<23 54 248 279 579 629> 23 54<95.0542 190.937> 523 21G<23 54> 548 54<161.837 192> 573 25<83 97.9505 220.009 235> 607 20G<266.5 278 371 402 792.444 827>
VStem: 192 16<76 549> 298 54<66 231 238 534> 523 54<69 309> 673 54<455.769 510.21> 748 54<167 395.555>
AnchorPoint: "blwmark" 475 0 basechar 0
AnchorPoint: "abvmark" 500 700 basechar 0
LayerCount: 2
Back
SplineSet
50 550 m 1
 50 550 84 600 124 600 c 3
 160 600 178 575 200 575 c 3
 228 575 250 600 251 600 c 1025
200 550 m 1
 200 75 l 1025
375 250 m 1
 500 375 l 1
 550 325 l 1
 550 50 l 1
 625 0 l 1
 775 151 l 1
 775 415 l 1
 775 415 700 419 700 475 c 3
 700 530 800 600 800 600 c 1025
375 600 m 1
 325 550 l 1
 325 50 l 1
 275 0 l 1
 275 0 248 50 150 50 c 3
 81 50 50 0 50 0 c 1033
EndSplineSet
Fore
SplineSet
391 627 m 1xefe0
 402 616 l 1
 352 566 l 1
 352 238 l 1
 516 402 l 1
 577 341 l 1
 577 69 l 1
 640 27 l 1
 748 135 l 1
 748 390 l 1
 735 392 713 398 699 412 c 2
 688 423 l 2
 679 432 673 443 673 459 c 0
 673 485 696 515 720 539 c 2
 762 582 l 2
 763 582 l 2
 789 608 816 627 816 627 c 2
 827 616 l 1
 784 573 l 2xefe0
 784 573 772 565 755 550 c 0
 740 532 727 510 727 491 c 0
 727 479 730 468 736 460 c 0
 758 443 791 442 791 442 c 1
 802 431 l 1
 802 167 l 1
 652 16 l 1
 609 -27 l 1
 534 23 l 1
 523 34 l 1
 523 309 l 1
 484 348 l 1
 359 223 l 1
 352 231 l 1
 352 66 l 1
 259 -27 l 1
 248 -16 l 1
 248 -16 247 -13 244 -9 c 0
 227 6 193 23 134 23 c 0
 101 23 78 12 62 1 c 2
 34 -27 l 1
 23 -16 l 2
 23 -16 27 -9 35 -1 c 2
 78 41 l 2
 93 56 122 77 166 77 c 0
 175 77 184 77 192 76 c 1
 192 549 l 2
 190 549 187 548 184 548 c 0xf7e0
 162 548 144 573 108 573 c 0
 95 573 83 568 71 560 c 2
 34 523 l 1
 23 534 l 1
 23 534 30 544 41 555 c 2
 83 598 l 2
 84 598 l 0xefe0
 98 612 118 627 140 627 c 0
 176 627 194 602 216 602 c 0xf7e0
 244 602 266 627 267 627 c 2
 278 616 l 1
 235 573 l 2
 234 573 224 561 208 554 c 1
 208 73 l 1
 247 66 270 50 281 39 c 0
 292 28 l 1
 298 34 l 1
 298 534 l 1
 391 627 l 1xefe0
EndSplineSet
EndChar
StartChar: dotlessj
Encoding: 567 567 98
Width: 200
Flags: W
HStem: 407 20G<81 116> 407 20G<81 116>
VStem: 73 54<-84 369>
AnchorPoint: "abvmark" 100 500 basechar 0
LayerCount: 2
Back
SplineSet
115 370 m 25
 85 400 l 25
 55 370 l 1049
100 385 m 1
 100 -100 l 9
 70 -130 l 1049
EndSplineSet
Fore
SplineSet
127 401 m 1xa0
 142 386 l 1
 127 371 l 1
 127 -84 l 1
 54 -157 l 1
 43 -146 l 1
 73 -116 l 1
 73 369 l 1
 69 373 l 1
 39 343 l 1
 28 354 l 1
 101 427 l 1
 116 412 l 1
 127 401 l 1xa0
EndSplineSet
EndChar
StartChar: breve
Encoding: 728 728 265
Width: 400
Flags: W
HStem: 498 54<154.896 258.205>
VStem: 73 279
LayerCount: 2
Back
SplineSet
100 600 m 17
 100 600 114.77749776 525 225 525 c 3
 270 525 325 600 325 600 c 1033
EndSplineSet
Fore
SplineSet
116 627 m 1
 127 616 l 1
 127 616 130 598 145 581 c 0
 164 565 194 552 241 552 c 0
 257 552 275 562 290 574 c 0
 295 580 298 584 298 584 c 2
 341 627 l 1
 352 616 l 1
 352 616 339 600 322 582 c 2
 280 539 l 2
 260 519 233 498 209 498 c 0
 156 498 126 515 108 533 c 2
 97 544 l 2
 77 564 73 584 73 584 c 1
 116 627 l 1
EndSplineSet
EndChar
StartChar: minute
Encoding: 8242 8242 926
Width: 300
Flags: W
HStem: 498 229
VStem: 173 54<634.624 684>
LayerCount: 2
Back
SplineSet
200 700 m 17
 200 600 100 525 100 525 c 1041
EndSplineSet
Fore
SplineSet
216 727 m 1
 227 716 l 1
 227 649 183 594 153 564 c 2
 110 521 l 2
 95 506 84 498 84 498 c 2
 73 509 l 1
 116 552 l 2
 116 552 117 553 120 555 c 0
 146 586 173 631 173 684 c 1
 216 727 l 1
EndSplineSet
EndChar
StartChar: et
Encoding: 8266 8266 960
Width: 400
Flags: W
HStem: -177 21G<123 154> 323 54<141.23 300.508> 407 20G<71 151 316 377> 407 20G<71 151 316 377>
VStem: 123 54<-134 41.1875>
LayerCount: 2
Back
SplineSet
75 400 m 1
 75 400 137 350 225 350 c 3
 279 350 350 400 350 400 c 1
 350 400 150 176 150 -100 c 3
 150 -68 150 -150 150 -150 c 1025
EndSplineSet
Fore
SplineSet
177 -84 m 2xe8
 177 -134 l 1
 134 -177 l 1
 123 -166 l 1
 123 -108 l 0
 126 100 241 278 295 350 c 1
 271 337 237 323 209 323 c 0
 121 323 59 373 59 373 c 1
 48 384 l 1
 91 427 l 1
 91 427 153 377 241 377 c 0
 295 377 366 427 366 427 c 1
 377 416 l 1
 377 416 180 194 177 -79 c 0
 177 -81 177 -82 177 -84 c 2xe8
EndSplineSet
EndChar
StartChar: minus
Encoding: 8722 8722 214
Width: 600
Flags: W
HStem: 273 54<116 484>
LayerCount: 2
Back
SplineSet
100 300 m 25
 500 300 l 1049
EndSplineSet
Fore
SplineSet
73 284 m 1
 116 327 l 1
 516 327 l 1
 527 316 l 1
 484 273 l 1
 84 273 l 1
 73 284 l 1
EndSplineSet
EndChar
StartChar: because
Encoding: 8757 8757 897
Width: 600
Flags: W
LayerCount: 2
Back
SplineSet
435 350 m 25
 465 320 l 1049
135 350 m 25
 165 320 l 1049
285 30 m 25
 315 0 l 1049
EndSplineSet
Fore
SplineSet
258 14 m 1
 301 57 l 1
 342 16 l 1
 299 -27 l 1
 258 14 l 1
108 334 m 1
 151 377 l 1
 192 336 l 1
 149 293 l 1
 108 334 l 1
408 334 m 1
 451 377 l 1
 492 336 l 1
 449 293 l 1
 408 334 l 1
EndSplineSet
EndChar
StartChar: rlslst
Encoding: 11804 11804 904
Width: 300
Flags: W
HStem: -177 304
VStem: 23 254
LayerCount: 2
Back
SplineSet
50 100 m 25
 250 -150 l 1049
EndSplineSet
Fore
SplineSet
66 127 m 1
 77 116 l 1
 277 -134 l 1
 234 -177 l 1
 223 -166 l 1
 23 84 l 1
 66 127 l 1
EndSplineSet
EndChar
StartChar: barquillleft
Encoding: 11808 11808 920
Width: 300
Flags: W
HStem: -177 21G<73 104> 273 54<127 234>
VStem: 73 54<-134 273 327 684>
LayerCount: 2
Back
SplineSet
250 300 m 25
 100 300 l 1049
100 700 m 25
 100 -150 l 1049
EndSplineSet
Fore
SplineSet
116 727 m 1
 127 716 l 1
 127 327 l 1
 266 327 l 1
 277 316 l 1
 234 273 l 1
 127 273 l 1
 127 -134 l 1
 84 -177 l 1
 73 -166 l 1
 73 284 l 1
 73 684 l 1
 116 727 l 1
EndSplineSet
EndChar
StartChar: a_a
Encoding: 42803 42803 336
Width: 600
Flags: W
HStem: 198 54<194.062 273 394.062 473> 407 20G<171 291 371 491> 407 20G<171 291 371 491>
VStem: 73 54<91 159> 273 54<109 191 252 341> 473 54<27.1868 87 109 198 252 350>
CounterMasks: 1 1c
AnchorPoint: "abvmark" 300 500 basechar 0
AnchorPoint: "blwmark" 300 0 basechar 0
LayerCount: 2
Back
SplineSet
300 325 m 1
 375 400 l 1
 500 375 l 1
 500 25 l 1
 525 0 l 1
 575 50 l 1049
500 125 m 25
 375 0 l 1
 300 75 l 1
 300 175 l 1
 375 250 l 1
 375 250 393.963867188 225 450 225 c 3
 430.99609375 225 500 225 500 225 c 1033
125 250 m 17
 100 325 l 1
 175 400 l 1
 300 375 l 1
 300 125 l 9
 175 0 l 1
 100 75 l 1
 100 175 l 1
 175 250 l 1
 175 250 193.964297096 225 250 225 c 3
 230.995781714 225 300 225 300 225 c 1033
EndSplineSet
Fore
SplineSet
264 252 m 2xdc
 273 252 l 1
 273 309 l 1
 273 350 l 1
 159 373 l 1
 127 341 l 1
 152 266 l 1
 109 223 l 1
 98 234 l 1
 73 309 l 1
 191 427 l 1
 316 402 l 1
 327 391 l 1
 327 363 l 1
 391 427 l 1
 516 402 l 1
 527 391 l 1
 527 241 l 1
 527 141 l 1
 527 41 l 2
 527 34 537 31 541 27 c 1
 591 77 l 1
 602 66 l 1
 509 -27 l 1
 473 9 l 1
 473 87 l 1
 359 -27 l 1
 273 59 l 1
 273 87 l 1
 159 -27 l 1
 73 59 l 1
 73 159 l 1
 191 277 l 1
 195 273 l 2
 203 266 222 252 262 252 c 0
 263 252 263 252 264 252 c 2xdc
273 198 m 1
 233 198 l 1
 189 199 167 215 161 221 c 2
 159 223 l 1
 127 191 l 1
 127 91 l 1
 191 27 l 1
 273 109 l 1
 273 159 l 1
 273 198 l 1
327 213 m 1
 391 277 l 1
 395 273 l 2
 403 266 422 252 462 252 c 0
 463 252 463 252 464 252 c 2
 473 252 l 1
 473 350 l 1
 359 373 l 1
 327 341 l 1
 327 213 l 1
327 141 m 1
 327 91 l 1
 391 27 l 1
 473 109 l 1
 473 198 l 1
 434 198 l 1
 433 198 l 2
 389 199 367 215 361 221 c 2
 359 223 l 1
 327 191 l 1
 327 141 l 1
EndSplineSet
LCarets2: 1 300 
Ligature2: "Historic ligatures-1" a a
EndChar
StartChar: a_o
Encoding: 42805 42805 341
Width: 600
Flags: W
HStem: 198 54<194.062 273> 407 20G<171 291 396 436> 407 20G<171 291 396 436>
VStem: 73 54<91 159> 273 54<84 87 109 198 252 316 338 350> 473 54<116 316>
CounterMasks: 1 1c
AnchorPoint: "blwmark" 300 0 basechar 0
AnchorPoint: "abvmark" 300 500 basechar 0
LayerCount: 2
Back
SplineSet
125 250 m 17
 100 325 l 1
 175 400 l 1
 300 375 l 1
 300 125 l 9
 175 0 l 1
 100 75 l 1
 100 175 l 1
 175 250 l 1
 175 250 193.964297096 225 250 225 c 3
 230.995781714 225 300 225 300 225 c 1033
400 400 m 25
 300 300 l 25
 300 100 l 25
 400 0 l 25
 500 100 l 25
 500 300 l 25
 400 400 l 25
EndSplineSet
Fore
SplineSet
273 87 m 1xdc
 159 -27 l 1
 73 59 l 1
 73 159 l 1
 191 277 l 1
 195 273 l 2
 203 266 222 252 262 252 c 0
 263 252 263 252 264 252 c 2
 273 252 l 1
 273 284 l 1
 273 350 l 1
 159 373 l 1
 127 341 l 1
 152 266 l 1
 109 223 l 1
 98 234 l 1
 73 309 l 1
 191 427 l 1
 316 402 l 1
 327 391 l 1
 327 338 l 1
 416 427 l 1
 527 316 l 1
 527 116 l 1
 384 -27 l 1
 273 84 l 1
 273 87 l 1xdc
327 141 m 1
 327 116 l 2
 327 66 390 53 416 27 c 1
 473 84 l 1
 473 284 l 2
 473 334 410 347 384 373 c 1
 327 316 l 1
 327 141 l 1
273 109 m 1
 273 198 l 1
 233 198 l 1
 189 199 167 215 161 221 c 2
 159 223 l 1
 127 191 l 1
 127 91 l 1
 191 27 l 1
 273 109 l 1
EndSplineSet
LCarets2: 1 300 
Ligature2: "Historic ligatures-1" a o
EndChar
StartChar: lbroken
Encoding: 42823 42823 574
Width: 350
Flags: W
HStem: 407 20G<246 277> 407 20G<246 277>
VStem: 73 54<288 594> 223 54<31 362>
LayerCount: 2
Back
SplineSet
235 30 m 25
 265 0 l 25
 295 30 l 1049
85 625 m 25
 115 595 l 1049
100 610 m 1
 100 250 l 1
 250 400 l 1
 250 15 l 1025
EndSplineSet
Fore
SplineSet
58 609 m 1xb0
 101 652 l 1
 116 637 l 1
 127 626 l 1
 142 611 l 1
 127 596 l 1
 127 288 l 1
 266 427 l 1
 277 416 l 1
 277 31 l 1
 281 27 l 1
 311 57 l 1
 322 46 l 1
 249 -27 l 1
 234 -12 l 1
 223 -1 l 1
 208 14 l 1
 223 29 l 1
 223 362 l 1
 84 223 l 1
 73 234 l 1
 73 594 l 1
 58 609 l 1xb0
EndSplineSet
EndChar
StartChar: zvisigoth
Encoding: 42851 42851 839
Width: 350
Flags: W
HStem: -227 54<150.005 202.711> -177 54<42.4053 108.776> 407 20G<196 236> 407 20G<196 236>
VStem: 73 54<221 284> 223 54<-156.062 -23>
AnchorPoint: "abvmark" 200 500 basechar 0
LayerCount: 2
Back
SplineSet
300 300 m 9
 200 400 l 25
 100 300 l 1
 100 200 l 25
 200 150 l 25
 100 50 l 1
 250 0 l 1
 250 -150 l 1
 250 -150 203 -200 175 -200 c 0
 143 -200 119 -150 75 -150 c 16
 37 -150 0 -200 0 -200 c 1025
EndSplineSet
Fore
SplineSet
327 316 m 1xac
 284 273 l 1
 184 373 l 1
 127 316 l 1
 127 221 l 1
 216 177 l 1
 227 166 l 1
 133 71 l 1
 266 27 l 1
 277 16 l 1
 277 -134 l 1
 277 -134 276 -136 273 -139 c 2
 230 -181 l 2
 218 -193 182 -227 159 -227 c 0xac
 127 -227 103 -177 59 -177 c 0x4c
 44 -177 30 -185 18 -194 c 2
 -16 -227 l 1x8c
 -27 -216 l 1
 -27 -216 -21 -208 -11 -198 c 2
 31 -155 l 2
 45 -141 68 -123 91 -123 c 0x4c
 135 -123 159 -173 191 -173 c 0
 200 -173 210 -168 223 -160 c 1
 223 -23 l 1
 84 23 l 1
 73 34 l 1
 169 131 l 1
 84 173 l 1
 73 184 l 1
 73 284 l 1
 216 427 l 1
 327 316 l 1xac
EndSplineSet
EndChar
StartChar: thornbar
Encoding: 42853 42853 874
Width: 400
Flags: W
HStem: -177 21G<73 104> 407 20G<196 236> 407 20G<196 236> 448 54<41 73 127 184>
VStem: 73 54<-134 7 74 316 338 448 502 594> 273 54<116 316>
AnchorPoint: "abvmark" 200 700 basechar 0
LayerCount: 2
Back
SplineSet
50 0 m 1
 50 0 96 50 125 50 c 0
 154 50 200 0 200 0 c 9
 300 100 l 1
 300 300 l 25
 200 400 l 1
 100 300 l 1049
85 625 m 25
 115 595 l 1049
100 610 m 1
 100 -150 l 1025
200 475 m 25
 25 475 l 1049
EndSplineSet
Fore
SplineSet
227 491 m 1xdc
 184 448 l 1
 127 448 l 1
 127 338 l 1
 216 427 l 1
 327 316 l 1
 327 116 l 1
 184 -27 l 1
 173 -16 l 2
 173 -15 l 0
 162 -4 144 11 127 19 c 1
 127 -134 l 1
 84 -177 l 1
 73 -166 l 1
 73 7 l 1
 63 0 54 -7 47 -14 c 2
 34 -27 l 1
 23 -16 l 1
 23 -16 25 -13 29 -9 c 2
 72 33 l 2
 73 34 72 34 73 35 c 2
 73 284 l 1
 73 448 l 1
 9 448 l 1
 -2 459 l 1
 41 502 l 1
 73 502 l 1
 73 594 l 1
 58 609 l 1
 101 652 l 1
 116 637 l 1
 127 626 l 1
 142 611 l 1
 127 596 l 1
 127 502 l 1
 216 502 l 1
 227 491 l 1xdc
127 316 m 1
 127 74 l 1
 132 76 137 77 141 77 c 0
 164 77 197 46 210 33 c 2
 216 27 l 1
 273 84 l 1
 273 284 l 2
 273 334 210 347 184 373 c 1
 127 316 l 1
EndSplineSet
EndChar
StartChar: thornbarbelow
Encoding: 42855 42855 875
Width: 400
Flags: W
HStem: -177 21G<73 104> -102 54<41 73 127 184> 407 20G<196 236> 407 20G<196 236>
VStem: 73 54<-134 -102 -48 57 124 316 338 594> 273 54<66 284>
AnchorPoint: "abvmark" 200 700 basechar 0
LayerCount: 2
Back
SplineSet
200 -75 m 25
 25 -75 l 1049
100 300 m 25
 200 400 l 1
 300 300 l 1
 300 50 l 1
 250 0 l 1
 250 0 206 100 125 100 c 0
 96 100 50 50 50 50 c 1025
85 625 m 25
 115 595 l 1049
100 610 m 1
 100 -150 l 1025
EndSplineSet
Fore
SplineSet
58 609 m 1xec
 101 652 l 1
 116 637 l 1
 127 626 l 1
 142 611 l 1
 127 596 l 1
 127 338 l 1
 216 427 l 1
 327 316 l 1
 327 66 l 1
 234 -27 l 1
 223 -16 l 1
 223 -16 210 14 186 41 c 0
 170 56 150 68 127 72 c 1
 127 -48 l 1
 216 -48 l 1
 227 -59 l 1
 184 -102 l 1
 127 -102 l 1
 127 -134 l 1
 84 -177 l 1
 73 -166 l 1
 73 -102 l 1
 9 -102 l 1
 -2 -91 l 1
 41 -48 l 1
 73 -48 l 1
 73 57 l 1
 63 50 54 42 47 36 c 2
 34 23 l 1
 23 34 l 2
 23 34 25 36 29 40 c 2
 29 41 l 2
 72 83 l 2
 73 84 72 84 73 85 c 2
 73 284 l 1
 73 594 l 1
 58 609 l 1xec
127 316 m 1
 127 124 l 1
 132 126 137 127 141 127 c 0
 175 127 202 109 222 89 c 2
 234 78 l 2
 250 62 262 42 269 30 c 1
 273 34 l 1
 273 284 l 1
 184 373 l 1
 127 316 l 1
EndSplineSet
EndChar
StartChar: vend
Encoding: 42857 42857 876
Width: 400
Flags: W
HStem: -177 21G<73 104> 407 20G<81 116 266 306> 407 20G<81 116 266 306>
VStem: 73 54<-134 -38 -16 16 38 369> 273 54<216 375.922>
AnchorPoint: "abvmark" 200 500 basechar 0
LayerCount: 2
Back
SplineSet
50 -50 m 9
 300 200 l 1
 300 370 l 25
 270 400 l 1025
85 400 m 25
 115 370 l 1049
100 385 m 1
 100 -150 l 1025
EndSplineSet
Fore
SplineSet
58 384 m 1xd8
 101 427 l 1
 116 412 l 1
 127 401 l 1
 142 386 l 1
 127 371 l 1
 127 38 l 1
 273 184 l 1
 273 354 l 2
 273 363 260 367 254 373 c 2
 243 384 l 1
 286 427 l 1
 327 386 l 1
 327 216 l 1
 127 16 l 1
 127 -134 l 1
 84 -177 l 1
 73 -166 l 1
 73 -38 l 1
 34 -77 l 1
 23 -66 l 1
 73 -16 l 1
 73 369 l 1
 58 384 l 1xd8
EndSplineSet
EndChar
StartChar: is
Encoding: 42861 42861 957
Width: 450
Flags: W
HStem: -227 54<20.2856 81.2284> -177 22<-94 -81.3897>
VStem: 98 54<-157.062 142 169 200 227 534> 298 54<416 534>
LayerCount: 2
Back
SplineSet
-125 -200 m 17
 -125 -200 -88 -150 -50 -150 c 8
 -6 -150 6 -200 50 -200 c 24
 85 -200 125 -150 125 -150 c 1
 125 550 l 1
 225 650 l 25
 325 550 l 25
 325 400 l 25
 0 50 l 1049
EndSplineSet
Fore
SplineSet
152 227 m 1x30
 298 384 l 1
 298 534 l 1
 209 623 l 1
 152 566 l 1
 152 227 l 1x30
-141 -227 m 1xb0
 -152 -216 l 1
 -152 -216 -146 -208 -136 -198 c 2
 -94 -155 l 2
 -93 -155 l 0x70
 -78 -140 -56 -123 -34 -123 c 0
 10 -123 22 -173 66 -173 c 0
 77 -173 89 -168 98 -162 c 1
 98 142 l 1
 27 66 l 1
 -16 23 l 1
 -27 34 l 1
 98 169 l 1
 98 534 l 1
 241 677 l 1
 352 566 l 1
 352 416 l 1
 152 200 l 1
 152 -134 l 1
 152 -134 146 -141 138 -149 c 2
 96 -192 l 2
 81 -207 56 -227 34 -227 c 0xb0
 -10 -227 -22 -177 -66 -177 c 0x70
 -81 -177 -94 -184 -107 -194 c 2
 -141 -227 l 1xb0
EndSplineSet
EndChar
StartChar: Rumsmallcap
Encoding: 42870 42870 858
Width: 650
Flags: W
HStem: -177 21G<323 354> -27 54<501.461 564.686> 407 20G<81 116 196 246> 407 20G<81 116 196 246>
VStem: 73 54<31 316 338 369> 473 54<41.2422 179>
LayerCount: 2
Back
SplineSet
450 225 m 1
 500 200 l 1
 500 200 500 139 500 100 c 27
 500 3 350 -150 350 -150 c 1025
600 50 m 17
 600 50 581 0 525 0 c 3
 431 0 400 50 400 50 c 9
 350 0 l 1
 350 0 331 82 300 125 c 24
 280 154 225 175 225 175 c 1025
85 30 m 25
 115 0 l 1049
85 400 m 25
 115 370 l 1049
100 385 m 9
 100 15 l 1025
200 150 m 1
 350 300 l 1
 200 400 l 1
 100 300 l 1049
EndSplineSet
Fore
SplineSet
184 123 m 1xec
 173 134 l 1
 198 159 l 1
 241 202 l 1
 321 282 l 1
 184 373 l 2
 184 373 133 322 127 316 c 1
 127 31 l 1
 142 16 l 1
 99 -27 l 1
 84 -12 l 1
 73 -1 l 1
 58 14 l 1
 73 29 l 1
 73 284 l 1
 73 369 l 1
 58 384 l 1
 101 427 l 1
 116 412 l 1
 127 401 l 1
 142 386 l 1
 127 371 l 1
 127 338 l 1
 216 427 l 1
 366 327 l 1
 377 316 l 1
 256 195 l 1
 271 188 292 177 307 162 c 2
 319 150 l 2
 322 147 325 144 327 141 c 0
 349 111 364 61 372 34 c 1
 416 77 l 1
 427 66 l 1
 427 66 428 64 430 61 c 0
 438 54 449 46 465 40 c 1
 470 55 473 70 473 84 c 2
 473 179 l 1
 434 198 l 1
 423 209 l 1
 466 252 l 1
 516 227 l 1
 527 216 l 1
 527 116 l 2
 527 90 517 60 501 30 c 1
 513 28 526 27 541 27 c 0
 553 27 563 29 573 33 c 0
 573 34 l 1
 616 77 l 1
 627 66 l 1
 627 66 622 52 609 39 c 2
 566 -4 l 2
 554 -16 535 -27 509 -27 c 0
 494 -27 480 -25 468 -23 c 1
 426 -84 377 -134 377 -134 c 2
 334 -177 l 1
 323 -166 l 1
 323 -166 395 -92 439 -15 c 1
 416 -6 401 5 393 13 c 2
 384 22 l 1
 334 -27 l 1
 323 -16 l 1
 323 -16 304 66 273 109 c 0
 272 110 271 113 270 114 c 0
 245 135 209 148 209 148 c 2
 184 123 l 1xec
EndSplineSet
EndChar
StartChar: hbar_longs
Encoding: 59335 59335 963
Width: 425
Flags: W
HStem: -227 54<20.3388 77.6147> -177 22<-94 -81.3897> 407 20G<246 286> 407 20G<246 286> 448 54<41 98 152 184> 623 4<316 360>
VStem: 98 54<-139 -138 -134 291 313 448 502 534> 298 54<31 341>
LayerCount: 2
Back
SplineSet
310 30 m 25
 340 0 l 1049
325 15 m 25
 325 325 l 25
 250 400 l 1
 125 275 l 1049
-125 -200 m 17
 -125 -200 -88 -150 -50 -150 c 8
 -19 -150 18 -200 50 -200 c 24
 78 -200 125 -150 125 -150 c 1
 125 550 l 1
 225 650 l 17
 225 650 256 600 300 600 c 24
 328 600 375 650 376 650 c 1033
200 475 m 25
 25 475 l 1049
EndSplineSet
Fore
SplineSet
227 491 m 1x8f
 184 448 l 1
 152 448 l 1
 152 313 l 1
 266 427 l 1
 352 341 l 1
 352 31 l 1
 367 16 l 1
 324 -27 l 1
 309 -12 l 1
 298 -1 l 1
 283 14 l 1
 298 29 l 1
 298 309 l 2
 298 344 253 354 234 373 c 1
 152 291 l 1
 152 -134 l 2
 152 -134 151 -135 148 -138 c 2
 148 -139 l 2
 105 -181 l 2
 93 -193 57 -227 34 -227 c 0xaf
 2 -227 -35 -177 -66 -177 c 0x4f
 -81 -177 -94 -184 -107 -194 c 2
 -141 -227 l 1x8f
 -152 -216 l 1
 -152 -216 -146 -208 -136 -198 c 2
 -94 -155 l 2
 -93 -155 l 0x4f
 -78 -140 -56 -123 -34 -123 c 0
 -3 -123 34 -173 66 -173 c 0
 76 -173 88 -167 98 -160 c 1
 98 259 l 1
 98 448 l 1
 9 448 l 1
 -2 459 l 1
 41 502 l 1
 98 502 l 1
 98 534 l 1
 241 677 l 1
 252 666 l 1
 252 666 256 658 264 649 c 0
 277 637 296 627 316 627 c 0
 344 627 391 677 392 677 c 2
 403 666 l 1
 360 623 l 2
 359 623 312 573 284 573 c 0
 260 573 241 588 228 601 c 2
 216 612 l 2
 213 615 211 618 208 621 c 1
 152 566 l 1
 152 502 l 1
 216 502 l 1
 227 491 l 1x8f
EndSplineSet
LCarets2: 1 225 
Ligature2: "Historic ligatures-1" hbar longs
EndChar
StartChar: q_v
Encoding: 60113 60113 967
Width: 600
Flags: W
HStem: -177 21G<273 304> 333 54<232.603 271.953> 407 20G<196 227 296 327> 407 20G<196 227 296 327 496 532>
VStem: 73 54<116 284> 273 54<-134 31 116 356> 423 54<426.306 504.806> 473 54<116 359>
LayerCount: 2
Back
SplineSet
300 100 m 9
 200 0 l 25
 100 100 l 25
 100 300 l 25
 200 400 l 1
 200 400 222 360 250 360 c 24
 278 360 300 400 300 400 c 9
 300 -150 l 1049
300 100 m 1
 400 0 l 25
 500 100 l 1
 500 375 l 25
 500 375 450 423 450 472 c 8
 450 514 504 550 505 550 c 1049
EndSplineSet
Fore
SplineSet
273 62 m 1xed
 184 -27 l 1
 73 84 l 1
 73 284 l 1
 216 427 l 1
 227 416 l 1
 227 416 231 407 239 398 c 0
 247 392 256 387 266 387 c 0
 270 387 274 388 278 389 c 2
 316 427 l 1
 327 416 l 1
 327 116 l 1
 416 27 l 1
 473 84 l 1
 473 359 l 1xed
 472 360 l 2
 465 367 423 411 423 456 c 0
 423 478 439 500 453 514 c 2
 495 556 l 2
 496 557 l 2
 509 570 521 577 521 577 c 2
 532 566 l 1
 489 523 l 2
 488 522 l 0
 482 512 477 501 477 488 c 0xee
 477 445 516 401 525 392 c 2
 527 391 l 1
 527 116 l 1
 384 -27 l 1
 327 31 l 1
 327 -134 l 1
 284 -177 l 1
 273 -166 l 1
 273 62 l 1xed
273 84 m 1
 273 356 l 1
 266 349 l 2
 257 340 246 333 234 333 c 0
 222 333 211 340 202 349 c 2
 191 361 l 2
 188 364 185 368 182 371 c 1
 127 316 l 1
 127 116 l 1
 216 27 l 1
 273 84 l 1
EndSplineSet
LCarets2: 1 300 
Ligature2: "Ligatures-1" q v
EndChar
StartChar: longs_h
Encoding: 60321 60321 707
Width: 650
Flags: W
HStem: -227 54<20.2856 81.2284> -177 22<-94 -81.3897> 407 20G<471 511> 407 20G<471 511> 573 54<272.484 323>
VStem: 98 54<-157.062 534> 323 54<31 291 313 573> 523 54<31 341>
LayerCount: 2
Back
SplineSet
535 30 m 25
 565 0 l 1049
335 30 m 25
 365 0 l 1049
550 15 m 25
 550 325 l 25
 475 400 l 1
 350 275 l 1049
-125 -200 m 17
 -125 -200 -88 -150 -50 -150 c 8
 -6 -150 6 -200 50 -200 c 24
 85 -200 125 -150 125 -150 c 1
 125 550 l 1
 225 650 l 1
 225 650 253 600 350 600 c 9
 350 15 l 1025
EndSplineSet
Fore
SplineSet
-141 -227 m 1x8f
 -152 -216 l 1
 -152 -216 -146 -208 -136 -198 c 2
 -94 -155 l 2
 -93 -155 l 0x4f
 -78 -140 -56 -123 -34 -123 c 0
 10 -123 22 -173 66 -173 c 0
 77 -173 89 -168 98 -162 c 1
 98 534 l 1
 241 677 l 1
 252 666 l 1
 252 666 253 663 256 660 c 0
 274 645 307 627 366 627 c 1
 377 616 l 1
 377 313 l 1
 491 427 l 1
 577 341 l 1
 577 31 l 1
 592 16 l 1
 549 -27 l 1
 534 -12 l 1
 523 -1 l 1
 508 14 l 1
 523 29 l 1
 523 309 l 2
 523 344 478 354 459 373 c 1
 377 291 l 1
 377 31 l 1
 392 16 l 1
 349 -27 l 1
 334 -12 l 1
 323 -1 l 1
 308 14 l 1
 323 29 l 1
 323 259 l 1
 323 573 l 1
 265 575 233 598 219 612 c 2
 208 622 l 1
 152 566 l 1
 152 -134 l 1
 152 -134 146 -141 138 -149 c 2
 96 -192 l 2
 81 -207 56 -227 34 -227 c 0xaf
 -10 -227 -22 -177 -66 -177 c 0x4f
 -81 -177 -94 -184 -107 -194 c 2
 -141 -227 l 1x8f
EndSplineSet
LCarets2: 1 300 
Ligature2: "Ligatures-1" longs h
EndChar
StartChar: longs_longs_l
Encoding: 60328 60328 332
Width: 650
GlyphClass: 3
Flags: W
HStem: -227 54<20.3388 77.6147 209.185 277.615> -177 22<-94 -81.3897> 598 54<450.451 519>
VStem: 98 54<-132.772 534> 298 54<-139 -138 -134 538.055> 523 54<31 594>
LayerCount: 2
Back
SplineSet
125 -150 m 1
 156 -150 218 -200 250 -200 c 0
 278 -200 325 -150 325 -150 c 1
 325 550 l 1
 425 650 l 17
 425 650 499 625 535 625 c 1
 565 595 l 1025
-125 -200 m 17
 -125 -200 -88 -150 -50 -150 c 8
 -19 -150 18 -200 50 -200 c 24
 78 -200 125 -150 125 -150 c 1
 125 550 l 1
 225 650 l 1
 225 650 281 550 325 550 c 1025
535 30 m 25
 565 0 l 25
 595 30 l 1049
550 610 m 9
 550 15 l 1049
EndSplineSet
Fore
SplineSet
-141 -227 m 1xbc
 -152 -216 l 1
 -152 -216 -146 -208 -136 -198 c 2
 -94 -155 l 2
 -93 -155 l 0x7c
 -78 -140 -56 -123 -34 -123 c 0
 -3 -123 34 -173 66 -173 c 0
 76 -173 88 -167 98 -160 c 1
 98 534 l 1
 241 677 l 1
 252 666 l 1
 252 666 274 626 301 597 c 0
 314 585 328 577 341 577 c 1
 441 677 l 1
 441 677 515 652 551 652 c 1
 566 637 l 1
 577 626 l 1
 592 611 l 1
 577 596 l 1
 577 31 l 1
 581 27 l 1
 611 57 l 1
 622 46 l 1
 549 -27 l 1
 534 -12 l 1
 529 -6 l 1
 508 14 l 1
 523 29 l 1
 523 594 l 1
 519 598 l 1
 483 598 409 623 409 623 c 1
 352 566 l 1
 352 -134 l 2
 352 -134 351 -135 348 -138 c 2
 348 -139 l 2
 305 -181 l 2
 293 -193 257 -227 234 -227 c 0xbc
 202 -227 141 -177 110 -177 c 1x7c
 105 -181 l 2
 93 -193 57 -227 34 -227 c 0xbc
 2 -227 -35 -177 -66 -177 c 0x7c
 -81 -177 -94 -184 -107 -194 c 2
 -141 -227 l 1xbc
298 525 m 1
 287 529 275 538 264 549 c 0
 253 560 l 2
 234 579 217 604 207 620 c 1
 152 566 l 1
 152 -125 l 1
 185 -134 238 -173 266 -173 c 0xbc
 276 -173 288 -167 298 -160 c 1
 298 525 l 1
EndSplineSet
LCarets2: 2 300 500 
Ligature2: "Ligatures-1" longs longs l
EndChar
StartChar: g_d
Encoding: 61138 61138 498
Width: 400
Flags: W
HStem: -227 54<195.339 252.732> -177 22<81 93.6103> 333 54<232.603 271.934> 407 20G<196 227> 407 20G<196 227> 523 54<133.948 241.542>
VStem: 73 54<84 284 578 621.625> 273 54<-139 -138 -134 62 84 356 387 491.668>
LayerCount: 2
Back
SplineSet
300 400 m 1
 300 450 l 2
 300 504.764528378 244 550 200 550 c 0
 156 550 100 556 100 600 c 27
 100 628 140 650 141 650 c 1049
50 -200 m 17
 50 -200 87 -150 125 -150 c 8
 156 -150 193 -200 225 -200 c 24
 253 -200 300 -150 300 -150 c 9
 300 400 l 1
 300 400 278 360 250 360 c 24
 222 360 200 400 200 400 c 1
 100 300 l 25
 100 100 l 25
 200 0 l 25
 300 100 l 1041
EndSplineSet
Fore
SplineSet
273 356 m 1x27
 266 349 l 2
 257 340 246 333 234 333 c 0
 222 333 211 340 202 349 c 2
 191 361 l 2
 188 364 184 368 182 371 c 2
 127 316 l 1
 127 116 l 2
 127 66 190 53 216 27 c 1
 273 84 l 1
 273 356 l 1x27
273 62 m 1
 184 -27 l 1
 73 84 l 1
 73 284 l 1
 216 427 l 1
 227 416 l 2
 227 416 231 407 239 398 c 0
 246 392 256 387 266 387 c 0
 269 387 270 387 273 388 c 2
 273 434 l 2
 273 457 262 480 248 496 c 0
 229 513 205 523 184 523 c 0
 152 523 115 526 96 545 c 2
 84 556 l 2
 77 563 73 572 73 584 c 0
 73 596 80 607 89 616 c 2
 132 659 l 2
 143 670 156 677 157 677 c 2
 168 666 l 1
 129 627 l 2
 128 624 127 620 127 616 c 0
 127 607 129 599 133 593 c 0
 153 579 187 577 216 577 c 0
 239 577 265 565 285 545 c 0
 285 544 l 2
 297 533 l 2
 315 515 327 492 327 466 c 2
 327 416 l 1
 327 -134 l 2
 327 -134 326 -135 323 -138 c 2
 323 -139 l 2
 280 -181 l 2
 268 -193 232 -227 209 -227 c 0xb7
 177 -227 140 -177 109 -177 c 0x67
 94 -177 81 -184 68 -194 c 2
 34 -227 l 1xa7
 23 -216 l 1
 23 -216 29 -208 39 -198 c 2
 81 -155 l 2
 82 -155 l 0x67
 97 -140 119 -123 141 -123 c 0
 172 -123 209 -173 241 -173 c 0xa7
 251 -173 262 -167 273 -160 c 1
 273 62 l 1
EndSplineSet
LCarets2: 1 200 
Ligature2: "Historic ligatures-1" g d
EndChar
StartChar: pfluorish_p
Encoding: 61143 61143 879
Width: 700
Flags: W
HStem: -177 21G<-2 22 173 204 373 404> 407 20G<181 221 296 336 496 536> 407 20G<181 221 296 336 496 536>
VStem: 48 54<-101.682 45.0792> 173 54<-134 22 111 316 338 369> 373 54<-134 12 74 284> 573 54<116 284>
LayerCount: 2
Back
SplineSet
400 -150 m 1
 400 300 l 9
 500 400 l 1
 600 300 l 25
 600 100 l 1
 500 0 l 1
 500 0 466 50 375 50 c 0
 346 50 300 0 300 0 c 1
 300 0 232 100 25 100 c 1
 25 100 75 44 75 0 c 3
 75 -132 25 -150 25 -150 c 1033
400 300 m 25
 300 400 l 1
 200 300 l 1049
185 400 m 25
 215 370 l 1049
200 385 m 1
 200 -150 l 1025
EndSplineSet
Fore
SplineSet
158 384 m 1xde
 201 427 l 1
 227 401 l 1
 242 386 l 1
 227 371 l 1
 227 338 l 1
 316 427 l 1
 416 327 l 1
 516 427 l 1
 627 316 l 1
 627 116 l 1
 484 -27 l 1
 473 -16 l 1
 473 -16 472 -15 471 -13 c 0
 462 -5 447 5 427 12 c 1
 427 -134 l 1
 384 -177 l 1
 373 -166 l 1
 373 23 l 2
 372 23 372 23 371 23 c 0
 367 23 363 23 359 23 c 0
 339 23 312 0 297 -14 c 2
 284 -27 l 1
 273 -16 l 1
 273 -16 271 -12 266 -7 c 0
 257 1 244 12 227 22 c 1
 227 -134 l 1
 184 -177 l 1
 173 -166 l 1
 173 47 l 1
 148 56 119 63 85 68 c 1
 94 51 102 33 102 16 c 0
 102 -73 79 -110 64 -125 c 2
 22 -168 l 2
 15 -175 9 -177 9 -177 c 2
 -2 -166 l 1
 22 -141 l 1
 35 -120 48 -83 48 -16 c 0
 48 28 -2 84 -2 84 c 1
 41 127 l 1
 94 127 137 121 173 111 c 1
 173 284 l 1
 173 369 l 1
 158 384 l 1xde
427 74 m 2
 429 74 432 73 434 73 c 0
 474 65 497 46 508 35 c 2
 516 27 l 1
 573 84 l 1
 573 284 l 1
 484 373 l 1
 427 316 l 1
 427 74 l 2
227 316 m 1
 227 92 l 1
 266 75 290 54 303 41 c 2
 315 30 l 2
 316 29 315 29 316 28 c 2
 322 33 l 2
 332 43 353 63 373 72 c 1
 373 284 l 1
 284 373 l 1
 227 316 l 1
EndSplineSet
LCarets2: 1 400 
Ligature2: "Ligatures-1" pflourish p
EndChar
StartChar: t_t
Encoding: 61145 61145 730
Width: 525
Flags: W
HStem: 373 54<66 98 152 298 352 434> 557 20G<121 152 321 352>
VStem: 98 54<38.6367 373 427 534> 298 54<38.6367 112 119 373 427 534>
LayerCount: 2
Back
SplineSet
325 550 m 1
 325 50 l 1
 375 0 l 1
 475 100 l 1025
50 400 m 1
 450 400 l 1041
125 550 m 1
 125 50 l 1
 175 0 l 1
 275 100 l 1025
EndSplineSet
Fore
SplineSet
141 577 m 1
 152 566 l 1
 152 427 l 1
 298 427 l 1
 298 534 l 1
 341 577 l 1
 352 566 l 1
 352 427 l 1
 466 427 l 1
 477 416 l 1
 434 373 l 1
 352 373 l 1
 352 66 l 2
 352 45 380 38 391 27 c 1
 491 127 l 1
 502 116 l 1
 359 -27 l 1
 298 34 l 1
 298 112 l 1
 159 -27 l 1
 98 34 l 1
 98 373 l 1
 34 373 l 1
 23 384 l 1
 66 427 l 1
 98 427 l 1
 98 534 l 1
 141 577 l 1
152 373 m 1
 152 66 l 2
 152 45 180 38 191 27 c 1
 291 127 l 1
 298 119 l 1
 298 373 l 1
 152 373 l 1
EndSplineSet
LCarets2: 1 300 
Ligature2: "Ligatures-1" t t
EndChar
StartChar: a_n
Encoding: 61351 61351 340
Width: 600
GlyphClass: 3
Flags: W
HStem: 198 54<194.062 273> 407 20G<171 291 421 461> 407 20G<171 291 421 461>
VStem: 73 54<91 159> 273 54<31 87 109 198 252 291 313 350> 473 54<31 341>
CounterMasks: 1 1c
LayerCount: 2
Back
SplineSet
125 250 m 17
 100 325 l 1
 175 400 l 1
 300 375 l 1
 300 125 l 9
 175 0 l 1
 100 75 l 1
 100 175 l 1
 175 250 l 1
 175 250 193.964297096 225 250 225 c 3
 230.995781714 225 300 225 300 225 c 1033
485 30 m 25
 515 0 l 1049
500 15 m 1
 500 325 l 25
 425 400 l 1
 300 275 l 1049
285 30 m 25
 315 0 l 1049
300 15 m 1
 300 375 l 1041
EndSplineSet
Fore
SplineSet
273 -1 m 1xdc
 258 14 l 1
 273 29 l 1
 273 87 l 1
 159 -27 l 1
 73 59 l 1
 73 159 l 1
 191 277 l 1
 195 273 l 2
 203 266 222 252 262 252 c 0
 263 252 263 252 264 252 c 2
 273 252 l 1
 273 259 l 1
 273 350 l 1
 159 373 l 1
 127 341 l 1
 152 266 l 1
 109 223 l 1
 98 234 l 1
 73 309 l 1
 191 427 l 1
 316 402 l 1
 327 391 l 1
 327 313 l 1
 441 427 l 1
 527 341 l 1
 527 31 l 1
 542 16 l 1
 499 -27 l 1
 484 -12 l 1
 473 -1 l 1
 458 14 l 1
 473 29 l 1
 473 309 l 2
 473 344 428 354 409 373 c 1
 327 291 l 1
 327 141 l 1
 327 31 l 1
 342 16 l 1
 299 -27 l 1
 284 -12 l 1
 273 -1 l 1xdc
273 109 m 1
 273 198 l 1
 233 198 l 1
 189 199 167 215 161 221 c 2
 159 223 l 1
 127 191 l 1
 127 91 l 1
 191 27 l 1
 273 109 l 1
EndSplineSet
LCarets2: 1 300 
Ligature2: "Historic ligatures-1" a n
EndChar
StartChar: h.alt
Encoding: 62010 62010 860
Width: 400
Flags: W
HStem: 407 20G<221 261> 407 20G<221 261>
VStem: 73 54<31 291 313 594> 273 54<-84 309>
AnchorPoint: "abvmark" 200 700 basechar 0
LayerCount: 2
Back
SplineSet
85 30 m 9
 115 0 l 1041
85 625 m 9
 115 595 l 1041
100 610 m 9
 100 15 l 1041
100 275 m 9
 225 400 l 1
 300 325 l 1
 300 -100 l 17
 270 -130 l 1025
EndSplineSet
Fore
SplineSet
58 609 m 1xb0
 101 652 l 1
 116 637 l 1
 127 626 l 1
 142 611 l 1
 127 596 l 1
 127 313 l 1
 241 427 l 1
 327 341 l 1
 327 -84 l 1
 254 -157 l 1
 243 -146 l 1
 273 -116 l 1
 273 309 l 1
 209 373 l 1
 127 291 l 1
 127 31 l 1
 142 16 l 1
 99 -27 l 1
 84 -12 l 1
 73 -1 l 1
 58 14 l 1
 73 29 l 1
 73 259 l 1
 73 594 l 1
 58 609 l 1xb0
EndSplineSet
EndChar
StartChar: longs_k
Encoding: 62716 62716 708
Width: 650
Flags: W
HStem: -227 54<20.6725 74.9026> -177 22<-94 -81.3897> 432 20G<531 566> 573 54<276.703 323>
VStem: 98 54<-134 534> 323 54<31 205 235 573> 523 54<31 182 366 394>
LayerCount: 2
Back
SplineSet
535 425 m 25
 565 395 l 1049
350 200 m 1
 550 350 l 9
 550 410 l 1049
450 275 m 1
 550 200 l 1
 550 15 l 1025
535 30 m 25
 565 0 l 1049
335 30 m 25
 365 0 l 1049
-125 -200 m 17
 -125 -200 -88 -150 -50 -150 c 8
 -32 -150 30 -200 50 -200 c 24
 71 -200 125 -150 125 -150 c 1
 125 550 l 1
 225 650 l 1
 225 650 266 600 350 600 c 9
 350 15 l 1025
EndSplineSet
Fore
SplineSet
-141 -227 m 1xbe
 -152 -216 l 1
 -152 -216 -146 -208 -136 -198 c 2
 -94 -155 l 2
 -93 -155 l 0x7e
 -78 -140 -56 -123 -34 -123 c 0
 -16 -123 46 -173 66 -173 c 0xbe
 74 -173 86 -166 98 -158 c 1
 98 534 l 1
 241 677 l 1
 249 668 l 2
 265 654 304 627 366 627 c 1
 377 616 l 1
 377 235 l 1
 523 345 l 1
 523 394 l 1
 508 409 l 1
 551 452 l 1
 566 437 l 1
 592 411 l 1
 577 396 l 1
 577 366 l 1
 534 323 l 1
 486 287 l 1
 566 227 l 1
 577 216 l 1
 577 31 l 1
 592 16 l 1
 549 -27 l 1
 534 -12 l 1
 523 -1 l 1
 508 14 l 1
 523 29 l 1
 523 182 l 1
 434 248 l 1
 377 205 l 1
 377 31 l 1
 392 16 l 1
 349 -27 l 1
 334 -12 l 1
 323 -1 l 1
 308 14 l 1
 323 29 l 1
 323 184 l 1
 323 573 l 1
 261 576 224 608 213 619 c 2
 209 623 l 1
 152 566 l 1
 152 -134 l 1
 109 -177 l 1x7e
 109 -177 55 -227 34 -227 c 0xbe
 14 -227 -48 -177 -66 -177 c 0x7e
 -81 -177 -94 -184 -107 -194 c 2
 -141 -227 l 1xbe
EndSplineSet
LCarets2: 1 300 
Ligature2: "Ligatures-1" longs k
EndChar
StartChar: longs_s
Encoding: 62717 62717 710
Width: 600
Flags: W
HStem: -227 54<20.3388 77.6147> -177 22<-94 -81.3897> 23 54<297.008 353.837> 323 54<439.786 502.425> 407 20G<396 427 557 577> 407 20G<396 427 557 577> 623 4<316 360>
VStem: 98 54<-139 -138 -134 534> 273 54<262 284> 473 54<116 138>
LayerCount: 2
Back
SplineSet
-125 -200 m 17
 -125 -200 -88 -150 -50 -150 c 8
 -19 -150 18 -200 50 -200 c 24
 78 -200 125 -150 125 -150 c 1
 125 550 l 1
 225 650 l 17
 225 650 256 600 300 600 c 24
 328 600 375 650 376 650 c 1033
550 400 m 17
 550 400 503 350 475 350 c 24
 431 350 400 400 400 400 c 9
 300 300 l 1
 300 240 l 1
 500 160 l 1
 500 100 l 1
 400 0 l 17
 400 0 354 50 325 50 c 24
 296 50 250 0 250 0 c 1025
EndSplineSet
Fore
SplineSet
566 427 m 1x3bc0
 577 416 l 1
 577 416 576 414 573 411 c 2
 530 369 l 2
 518 357 482 323 459 323 c 0
 435 323 416 338 403 351 c 2
 391 362 l 2
 391 363 l 0
 388 366 385 368 383 371 c 2
 327 316 l 1
 327 262 l 1
 516 187 l 1
 527 176 l 1
 527 116 l 1
 384 -27 l 1
 373 -16 l 1
 373 -15 l 0
 357 0 329 23 309 23 c 0
 289 23 262 0 247 -14 c 2
 234 -27 l 1
 223 -16 l 2
 223 -16 225 -14 229 -10 c 2
 229 -9 l 2
 272 33 l 2
 285 46 318 77 341 77 c 0
 364 77 397 46 410 33 c 2
 416 27 l 1
 473 84 l 1
 473 138 l 1
 284 213 l 1
 273 224 l 1
 273 284 l 1
 416 427 l 1
 427 416 l 2
 427 416 431 408 439 399 c 0
 452 388 471 377 491 377 c 0
 512 377 542 403 557 418 c 2
 566 427 l 1x3bc0
-141 -227 m 1xb3c0
 -152 -216 l 1
 -152 -216 -146 -208 -136 -198 c 2
 -94 -155 l 2
 -93 -155 l 0x73c0
 -78 -140 -56 -123 -34 -123 c 0
 -3 -123 34 -173 66 -173 c 0
 76 -173 88 -167 98 -160 c 1
 98 534 l 1
 241 677 l 1
 252 666 l 1
 252 666 256 658 264 649 c 0
 277 637 296 627 316 627 c 0
 344 627 391 677 392 677 c 2
 403 666 l 1
 360 623 l 2
 359 623 312 573 284 573 c 0
 260 573 241 588 228 601 c 2
 216 612 l 2
 213 615 211 618 208 621 c 1
 152 566 l 1
 152 -134 l 2
 152 -134 151 -135 148 -138 c 2
 148 -139 l 2
 105 -181 l 2
 93 -193 57 -227 34 -227 c 0xb3c0
 2 -227 -35 -177 -66 -177 c 0x73c0
 -81 -177 -94 -184 -107 -194 c 2
 -141 -227 l 1xb3c0
EndSplineSet
LCarets2: 1 300 
Ligature2: "Ligatures-1" longs s
EndChar
StartChar: longs_longs_t
Encoding: 62719 62719 712
Width: 725
Flags: W
HStem: -227 54<20.3388 77.6147 209.185 277.732> -177 22<-94 -81.3897> 373 54<466 498 552 634>
VStem: 98 54<-132.772 534> 298 54<-156.062 538.055> 498 54<66 373 427 538.055>
CounterMasks: 1 1c
LayerCount: 2
Back
SplineSet
675 100 m 1
 575 0 l 1
 525 50 l 1
 525 550 l 1
 481 550 425 650 425 650 c 1
 325 550 l 1
 325 -150 l 1
 325 -150 278 -200 250 -200 c 0
 218 -200 156 -150 125 -150 c 1025
450 400 m 25
 650 400 l 1049
-125 -200 m 17
 -125 -200 -88 -150 -50 -150 c 8
 -19 -150 18 -200 50 -200 c 24
 78 -200 125 -150 125 -150 c 1
 125 550 l 1
 225 650 l 1
 225 650 281 550 325 550 c 1025
EndSplineSet
Fore
SplineSet
-141 -227 m 1xbc
 -152 -216 l 1
 -152 -216 -146 -208 -136 -198 c 2
 -94 -155 l 2
 -93 -155 l 0x7c
 -78 -140 -56 -123 -34 -123 c 0
 -3 -123 34 -173 66 -173 c 0
 76 -173 88 -167 98 -160 c 1
 98 534 l 1
 241 677 l 1
 252 666 l 1
 252 666 274 626 301 597 c 0
 314 585 328 577 341 577 c 1
 441 677 l 1
 452 666 l 2
 452 666 474 626 501 597 c 0
 514 585 528 577 541 577 c 1
 552 566 l 1
 552 427 l 1
 666 427 l 1
 677 416 l 1
 634 373 l 1
 552 373 l 1
 552 66 l 1
 591 27 l 1
 691 127 l 1
 702 116 l 1
 559 -27 l 1
 498 34 l 1
 498 373 l 1
 434 373 l 1
 423 384 l 1
 466 427 l 1
 498 427 l 1
 498 525 l 1
 487 529 475 538 464 549 c 2
 453 560 l 2
 434 579 417 605 407 620 c 1
 352 566 l 1
 352 -134 l 1
 352 -134 351 -136 348 -139 c 2
 305 -181 l 2
 293 -193 257 -227 234 -227 c 0xbc
 202 -227 141 -177 110 -177 c 1x7c
 105 -181 l 2
 93 -193 57 -227 34 -227 c 0xbc
 2 -227 -35 -177 -66 -177 c 0x7c
 -81 -177 -94 -184 -107 -194 c 2
 -141 -227 l 1xbc
298 525 m 1
 287 529 275 538 264 549 c 0
 253 560 l 2
 234 579 217 604 207 620 c 1
 152 566 l 1
 152 -125 l 1
 185 -134 238 -173 266 -173 c 0xbc
 276 -173 287 -168 298 -160 c 1
 298 525 l 1
EndSplineSet
LCarets2: 2 300 500 
Ligature2: "Ligatures-1" longs longs t
EndChar
StartChar: f_f
Encoding: 64256 64256 320
Width: 500
Flags: W
HStem: -227 54<20.3388 77.6147 209.185 277.615> -177 22<-94 -81.3897> 373 54<66 98 152 298 352 434> 623 4<516 560>
VStem: 98 54<-132.772 373 427 534> 298 54<-139 -138 -134 373 427 538.055>
LayerCount: 2
Back
SplineSet
125 -150 m 1
 156 -150 218 -200 250 -200 c 0
 278 -200 325 -150 325 -150 c 1
 325 550 l 1
 425 650 l 17
 425 650 456 600 500 600 c 24
 528 600 575 650 576 650 c 1033
-125 -200 m 17
 -125 -200 -88 -150 -50 -150 c 8
 -19 -150 18 -200 50 -200 c 24
 78 -200 125 -150 125 -150 c 1
 125 550 l 1
 225 650 l 1
 225 650 281 550 325 550 c 1025
50 400 m 25
 450 400 l 1049
EndSplineSet
Fore
SplineSet
23 384 m 1xbc
 66 427 l 1
 98 427 l 1
 98 534 l 1
 241 677 l 1
 252 666 l 1
 252 666 274 626 301 597 c 0
 314 585 328 577 341 577 c 1
 441 677 l 1
 452 666 l 1
 452 666 456 658 464 649 c 0
 477 637 496 627 516 627 c 0
 544 627 591 677 592 677 c 2
 603 666 l 1
 560 623 l 2
 559 623 512 573 484 573 c 0
 460 573 441 588 428 601 c 2
 416 612 l 2
 413 615 411 618 408 621 c 1
 352 566 l 1
 352 427 l 1
 466 427 l 1
 477 416 l 1
 434 373 l 1
 352 373 l 1
 352 -134 l 2
 352 -134 351 -135 348 -138 c 2
 348 -139 l 2
 305 -181 l 2
 293 -193 257 -227 234 -227 c 0xbc
 202 -227 141 -177 110 -177 c 1x7c
 105 -181 l 2
 93 -193 57 -227 34 -227 c 0xbc
 2 -227 -35 -177 -66 -177 c 0x7c
 -81 -177 -94 -184 -107 -194 c 2
 -141 -227 l 1xbc
 -152 -216 l 1
 -152 -216 -146 -208 -136 -198 c 2
 -94 -155 l 2
 -93 -155 l 0x7c
 -78 -140 -56 -123 -34 -123 c 0
 -3 -123 34 -173 66 -173 c 0
 76 -173 88 -167 98 -160 c 1
 98 373 l 1
 34 373 l 1
 23 384 l 1xbc
152 427 m 1
 298 427 l 1
 298 525 l 1
 287 529 275 538 264 549 c 0
 253 560 l 2
 234 579 217 604 207 620 c 1
 152 566 l 1
 152 427 l 1
152 373 m 1
 152 -125 l 1
 185 -134 238 -173 266 -173 c 0
 276 -173 288 -167 298 -160 c 1
 298 373 l 1
 152 373 l 1
EndSplineSet
LCarets2: 1 300 
Ligature2: "Ligatures-1" f f
EndChar
StartChar: f_i
Encoding: 64257 64257 321
Width: 450
Flags: W
HStem: -227 54<20.2856 81.2284> -177 22<-94 -81.3897> 373 54<66 98 152 319> 533 21G<333 364>
VStem: 98 54<-157.062 373 427 534> 323 54<31 369>
LayerCount: 2
Back
SplineSet
350 385 m 9
 350 15 l 1025
335 30 m 25
 365 0 l 25
 395 30 l 1049
50 400 m 1
 335 400 l 25
 365 370 l 1025
-125 -200 m 1
 -125 -200 -88 -150 -50 -150 c 8
 -6 -150 6 -200 50 -200 c 24
 85 -200 125 -150 125 -150 c 1
 125 550 l 1
 225 650 l 1
 225 650 330 590 390 590 c 9
 360 560 l 1025
EndSplineSet
Fore
SplineSet
-141 -227 m 1xbc
 -152 -216 l 1
 -152 -216 -146 -208 -136 -198 c 2
 -94 -155 l 2
 -93 -155 l 0x7c
 -78 -140 -56 -123 -34 -123 c 0
 10 -123 22 -173 66 -173 c 0
 77 -173 89 -168 98 -162 c 1
 98 373 l 1
 34 373 l 1
 23 384 l 1
 66 427 l 1
 98 427 l 1
 98 534 l 1
 241 677 l 1
 241 677 346 617 406 617 c 1
 417 606 l 1
 344 533 l 1
 333 544 l 1
 354 565 l 1
 294 575 209 623 209 623 c 1
 152 566 l 1
 152 427 l 1
 351 427 l 1
 366 412 l 1
 377 401 l 1
 392 386 l 1
 377 371 l 1
 377 31 l 1
 381 27 l 1
 411 57 l 1
 422 46 l 1
 349 -27 l 1
 334 -12 l 1
 323 -1 l 1
 308 14 l 1
 323 29 l 1
 323 369 l 1
 319 373 l 1
 152 373 l 1
 152 -134 l 1
 152 -134 146 -141 138 -149 c 2
 96 -192 l 2
 81 -207 56 -227 34 -227 c 0xbc
 -10 -227 -22 -177 -66 -177 c 0x7c
 -81 -177 -94 -184 -107 -194 c 2
 -141 -227 l 1xbc
EndSplineSet
LCarets2: 1 300 
Ligature2: "Ligatures-1" f i
EndChar
StartChar: f_l
Encoding: 64258 64258 323
Width: 450
Flags: W
HStem: -227 54<20.6725 74.9026> -177 22<-94 -81.3897> 373 54<66 98 152 284> 598 54<250.451 319>
VStem: 98 54<-134 373 427 534> 323 54<31 412 419 594>
LayerCount: 2
Back
SplineSet
-125 -200 m 17
 -125 -200 -88 -150 -50 -150 c 8
 -32 -150 30 -200 50 -200 c 24
 71 -200 125 -150 125 -150 c 1
 125 550 l 1
 225 650 l 1
 225 650 299 625 335 625 c 9
 365 595 l 1025
50 400 m 25
 300 400 l 1049
335 30 m 25
 365 0 l 25
 395 30 l 1049
350 610 m 9
 350 15 l 1049
EndSplineSet
Fore
SplineSet
23 384 m 1xbc
 66 427 l 1
 98 427 l 1
 98 534 l 1
 241 677 l 1
 241 677 315 652 351 652 c 1
 366 637 l 1
 371 631 l 1
 392 611 l 1
 377 596 l 1
 377 31 l 1
 381 27 l 1
 411 57 l 1
 422 46 l 1
 349 -27 l 1
 334 -12 l 1
 323 -1 l 1
 308 14 l 1
 323 29 l 1
 323 412 l 1
 284 373 l 1
 152 373 l 1
 152 -134 l 1
 109 -177 l 1x7c
 109 -177 55 -227 34 -227 c 0xbc
 14 -227 -48 -177 -66 -177 c 0x7c
 -81 -177 -94 -184 -107 -194 c 2
 -141 -227 l 1xbc
 -152 -216 l 1
 -152 -216 -146 -208 -136 -198 c 2
 -94 -155 l 2
 -93 -155 l 0x7c
 -78 -140 -56 -123 -34 -123 c 0
 -16 -123 46 -173 66 -173 c 0
 74 -173 86 -166 98 -158 c 1
 98 373 l 1
 34 373 l 1
 23 384 l 1xbc
323 419 m 1
 323 594 l 1
 319 598 l 1
 283 598 209 623 209 623 c 1
 152 566 l 1
 152 427 l 1
 316 427 l 1
 323 419 l 1
EndSplineSet
LCarets2: 1 300 
Ligature2: "Ligatures-1" f l
EndChar
StartChar: w.alt
Encoding: 65542 -1 784
Width: 600
Flags: W
HStem: 407 20G<81 116 281 316 466 506> 407 20G<81 116 281 316 466 506>
VStem: 73 54<84 369> 273 54<84 369> 473 54<116 375.922>
CounterMasks: 1 38
AnchorPoint: "abvmark" 300 500 basechar 0
AnchorPoint: "blwmark" 300 0 basechar 0
LayerCount: 2
Back
SplineSet
315 370 m 25
 285 400 l 1049
300 385 m 25
 300 100 l 1
 400 0 l 25
 500 100 l 1
 500 370 l 25
 470 400 l 1049
115 370 m 25
 85 400 l 1049
100 385 m 25
 100 100 l 1
 200 0 l 25
 300 100 l 1025
EndSplineSet
Fore
SplineSet
127 401 m 1xb8
 142 386 l 1
 127 371 l 1
 127 116 l 2
 127 66 190 53 216 27 c 1
 273 84 l 1
 273 369 l 1
 258 384 l 1
 301 427 l 1
 316 412 l 1
 327 401 l 1
 342 386 l 1
 327 371 l 1
 327 116 l 2
 327 66 390 53 416 27 c 1
 473 84 l 1
 473 354 l 2
 473 363 460 367 454 373 c 2
 443 384 l 1
 486 427 l 1
 527 386 l 1
 527 116 l 1
 384 -27 l 1
 284 73 l 1
 184 -27 l 1
 73 84 l 1
 73 369 l 1
 58 384 l 1
 101 427 l 1
 116 412 l 1
 127 401 l 1xb8
EndSplineSet
EndChar
